<mxfile host="app.diagrams.net" agent="Mozilla/5.0 (Macintosh; Intel Mac OS X 10_15_7) AppleWebKit/605.1.15 (KHTML, like Gecko) Version/17.6 Safari/605.1.15" version="24.7.7" pages="2">
  <diagram name="Page-1" id="XF5it0wSS179mZVECl8C">
    <mxGraphModel dx="2123" dy="728" grid="1" gridSize="10" guides="1" tooltips="1" connect="1" arrows="1" fold="1" page="1" pageScale="1" pageWidth="827" pageHeight="1169" math="0" shadow="0">
      <root>
        <mxCell id="0" />
        <mxCell id="1" parent="0" />
        <mxCell id="FcI4tEpsbTkB4p8tI-y6-8" value="" style="rounded=1;whiteSpace=wrap;html=1;fillColor=none;dashed=1;strokeColor=#6c8ebf;" parent="1" vertex="1">
          <mxGeometry x="-40" y="230" width="470" height="670" as="geometry" />
        </mxCell>
        <mxCell id="H_bxvmRMCq8RUzBY3Vh4-2" value="" style="rounded=1;whiteSpace=wrap;html=1;fillColor=none;strokeColor=#6c8ebf;" vertex="1" parent="1">
          <mxGeometry x="-30" y="350" width="380" height="130" as="geometry" />
        </mxCell>
        <mxCell id="FcI4tEpsbTkB4p8tI-y6-77" value="" style="rounded=1;whiteSpace=wrap;html=1;fillColor=none;" parent="1" vertex="1">
          <mxGeometry x="520" y="595.68" width="150" height="50" as="geometry" />
        </mxCell>
        <mxCell id="FcI4tEpsbTkB4p8tI-y6-16" value="" style="rounded=1;whiteSpace=wrap;html=1;fillColor=#dae8fc;dashed=1;verticalAlign=bottom;fontFamily=Comic Sans MS;strokeColor=#6c8ebf;" parent="1" vertex="1">
          <mxGeometry x="260" y="530" width="80" height="160" as="geometry" />
        </mxCell>
        <mxCell id="FcI4tEpsbTkB4p8tI-y6-41" value="" style="rounded=1;whiteSpace=wrap;html=1;fillColor=none;strokeColor=#A9C4EB;" parent="1" vertex="1">
          <mxGeometry x="270" y="580" width="60" height="100" as="geometry" />
        </mxCell>
        <mxCell id="FcI4tEpsbTkB4p8tI-y6-7" value="" style="rounded=1;whiteSpace=wrap;html=1;fillColor=#dae8fc;dashed=1;verticalAlign=bottom;fontFamily=Comic Sans MS;strokeColor=#6c8ebf;" parent="1" vertex="1">
          <mxGeometry x="50" y="530" width="190" height="160" as="geometry" />
        </mxCell>
        <mxCell id="FcI4tEpsbTkB4p8tI-y6-30" style="edgeStyle=orthogonalEdgeStyle;rounded=0;orthogonalLoop=1;jettySize=auto;html=1;endArrow=classic;endFill=1;fillColor=#dae8fc;strokeColor=#6c8ebf;" parent="1" source="FcI4tEpsbTkB4p8tI-y6-4" edge="1">
          <mxGeometry relative="1" as="geometry">
            <mxPoint x="20" y="557.5" as="targetPoint" />
          </mxGeometry>
        </mxCell>
        <mxCell id="FcI4tEpsbTkB4p8tI-y6-4" value="" style="sketch=0;html=1;aspect=fixed;strokeColor=#6c8ebf;shadow=0;fillColor=#dae8fc;verticalAlign=top;labelPosition=center;verticalLabelPosition=bottom;shape=mxgraph.gcp2.big_query" parent="1" vertex="1">
          <mxGeometry x="65.3" y="540" width="34.65" height="35" as="geometry" />
        </mxCell>
        <mxCell id="FcI4tEpsbTkB4p8tI-y6-26" style="edgeStyle=orthogonalEdgeStyle;rounded=0;orthogonalLoop=1;jettySize=auto;html=1;endArrow=classic;endFill=1;fillColor=#dae8fc;strokeColor=#6c8ebf;" parent="1" source="FcI4tEpsbTkB4p8tI-y6-6" edge="1">
          <mxGeometry relative="1" as="geometry">
            <mxPoint x="20" y="420" as="targetPoint" />
          </mxGeometry>
        </mxCell>
        <mxCell id="FcI4tEpsbTkB4p8tI-y6-6" value="" style="sketch=0;html=1;aspect=fixed;strokeColor=#6c8ebf;shadow=0;fillColor=#dae8fc;verticalAlign=top;labelPosition=center;verticalLabelPosition=bottom;shape=mxgraph.gcp2.big_query" parent="1" vertex="1">
          <mxGeometry x="65.3" y="590" width="34.65" height="35" as="geometry" />
        </mxCell>
        <mxCell id="FcI4tEpsbTkB4p8tI-y6-39" style="edgeStyle=orthogonalEdgeStyle;rounded=0;orthogonalLoop=1;jettySize=auto;html=1;endArrow=classic;endFill=1;fillColor=#dae8fc;strokeColor=#6c8ebf;" parent="1" source="FcI4tEpsbTkB4p8tI-y6-10" edge="1">
          <mxGeometry relative="1" as="geometry">
            <mxPoint x="170" y="720" as="targetPoint" />
            <Array as="points">
              <mxPoint x="170" y="558" />
              <mxPoint x="170" y="720" />
            </Array>
          </mxGeometry>
        </mxCell>
        <mxCell id="FcI4tEpsbTkB4p8tI-y6-117" value="&lt;font style=&quot;font-size: 6px;&quot; face=&quot;Comic Sans MS&quot;&gt;9999&lt;/font&gt;" style="edgeLabel;html=1;align=center;verticalAlign=middle;resizable=0;points=[];labelBackgroundColor=none;" parent="FcI4tEpsbTkB4p8tI-y6-39" vertex="1" connectable="0">
          <mxGeometry x="0.048" y="1" relative="1" as="geometry">
            <mxPoint x="-13" y="18" as="offset" />
          </mxGeometry>
        </mxCell>
        <mxCell id="FcI4tEpsbTkB4p8tI-y6-10" value="Compute&#xa;Engine" style="sketch=0;html=1;verticalAlign=top;labelPosition=center;verticalLabelPosition=bottom;align=center;spacingTop=-6;fontSize=4;fontStyle=0;shape=image;aspect=fixed;imageAspect=0;image=data:image/svg+xml,PHN2ZyB4bWxucz0iaHR0cDovL3d3dy53My5vcmcvMjAwMC9zdmciIHhtbG5zOnY9Imh0dHBzOi8vdmVjdGEuaW8vbmFubyIgd2lkdGg9IjIwIiBoZWlnaHQ9IjIwIiB2aWV3Qm94PSIwIDAgMjAgMjAiPiYjeGE7CTxzdHlsZSB0eXBlPSJ0ZXh0L2NzcyI+JiN4YTsJLnN0MHtmaWxsOiM0Mjg1ZjQ7fSYjeGE7CS5zdDF7ZmlsbDojNjY5ZGY2O30mI3hhOwkuc3Qye2ZpbGw6I2FlY2JmYTt9JiN4YTsJPC9zdHlsZT4mI3hhOwk8cGF0aCBjbGFzcz0ic3QyIiBkPSJNNyA3aDZ2Nkg3eiIvPiYjeGE7CTxwYXRoIGNsYXNzPSJzdDEiIGQ9Ik05IDBoMnY0SDl6TTUgMGgydjRINXptOCAwaDJ2NGgtMnoiLz4mI3hhOwk8cGF0aCBjbGFzcz0ic3QwIiBkPSJNOSAxNmgydjRIOXptLTQgMGgydjRINXptOCAwaDJ2NGgtMnptMy01VjloNHYyem0wIDR2LTJoNHYyem0wLThWNWg0djJ6Ii8+JiN4YTsJPHBhdGggY2xhc3M9InN0MSIgZD0iTTAgMTFWOWg0djJ6bTAgNHYtMmg0djJ6bTAtOFY1aDR2MnoiLz4mI3hhOwk8cGF0aCBjbGFzcz0ic3QyIiBkPSJNMyAzdjE0aDE0VjN6bTEyIDEySDVWNWgxMHoiLz4mI3hhOwk8cGF0aCBjbGFzcz0ic3QxIiBkPSJNMTAgMTBsLTMgM2g2eiIvPiYjeGE7CTxwYXRoIGNsYXNzPSJzdDAiIGQ9Ik0xMyA3bC0zIDMgMyAzeiIvPiYjeGE7PC9zdmc+;fontFamily=Verdana;noLabel=1;fillColor=#dae8fc;strokeColor=#6c8ebf;" parent="1" vertex="1">
          <mxGeometry x="120" y="540" width="35" height="35" as="geometry" />
        </mxCell>
        <mxCell id="FcI4tEpsbTkB4p8tI-y6-11" value="&lt;font style=&quot;font-size: 6px;&quot; face=&quot;Comic Sans MS&quot;&gt;Compute&lt;br&gt;Engine&lt;/font&gt;" style="sketch=0;html=1;verticalAlign=top;labelPosition=center;verticalLabelPosition=bottom;align=center;spacingTop=-6;fontSize=4;fontStyle=0;shape=image;aspect=fixed;imageAspect=0;image=data:image/svg+xml,PHN2ZyB4bWxucz0iaHR0cDovL3d3dy53My5vcmcvMjAwMC9zdmciIHhtbG5zOnY9Imh0dHBzOi8vdmVjdGEuaW8vbmFubyIgd2lkdGg9IjIwIiBoZWlnaHQ9IjIwIiB2aWV3Qm94PSIwIDAgMjAgMjAiPiYjeGE7CTxzdHlsZSB0eXBlPSJ0ZXh0L2NzcyI+JiN4YTsJLnN0MHtmaWxsOiM0Mjg1ZjQ7fSYjeGE7CS5zdDF7ZmlsbDojNjY5ZGY2O30mI3hhOwkuc3Qye2ZpbGw6I2FlY2JmYTt9JiN4YTsJPC9zdHlsZT4mI3hhOwk8cGF0aCBjbGFzcz0ic3QyIiBkPSJNNyA3aDZ2Nkg3eiIvPiYjeGE7CTxwYXRoIGNsYXNzPSJzdDEiIGQ9Ik05IDBoMnY0SDl6TTUgMGgydjRINXptOCAwaDJ2NGgtMnoiLz4mI3hhOwk8cGF0aCBjbGFzcz0ic3QwIiBkPSJNOSAxNmgydjRIOXptLTQgMGgydjRINXptOCAwaDJ2NGgtMnptMy01VjloNHYyem0wIDR2LTJoNHYyem0wLThWNWg0djJ6Ii8+JiN4YTsJPHBhdGggY2xhc3M9InN0MSIgZD0iTTAgMTFWOWg0djJ6bTAgNHYtMmg0djJ6bTAtOFY1aDR2MnoiLz4mI3hhOwk8cGF0aCBjbGFzcz0ic3QyIiBkPSJNMyAzdjE0aDE0VjN6bTEyIDEySDVWNWgxMHoiLz4mI3hhOwk8cGF0aCBjbGFzcz0ic3QxIiBkPSJNMTAgMTBsLTMgM2g2eiIvPiYjeGE7CTxwYXRoIGNsYXNzPSJzdDAiIGQ9Ik0xMyA3bC0zIDMgMyAzeiIvPiYjeGE7PC9zdmc+;fontFamily=Verdana;fillColor=#dae8fc;strokeColor=#6c8ebf;fontColor=default;" parent="1" vertex="1">
          <mxGeometry x="120" y="587.5" width="35" height="35" as="geometry" />
        </mxCell>
        <mxCell id="FcI4tEpsbTkB4p8tI-y6-100" style="edgeStyle=orthogonalEdgeStyle;rounded=0;orthogonalLoop=1;jettySize=auto;html=1;entryX=0.5;entryY=0;entryDx=0;entryDy=0;" parent="1" source="FcI4tEpsbTkB4p8tI-y6-12" target="FcI4tEpsbTkB4p8tI-y6-76" edge="1">
          <mxGeometry relative="1" as="geometry" />
        </mxCell>
        <mxCell id="FcI4tEpsbTkB4p8tI-y6-111" value="443" style="edgeLabel;html=1;align=center;verticalAlign=middle;resizable=0;points=[];fontSize=8;fontFamily=Comic Sans MS;" parent="FcI4tEpsbTkB4p8tI-y6-100" vertex="1" connectable="0">
          <mxGeometry x="-0.3316" y="-1" relative="1" as="geometry">
            <mxPoint as="offset" />
          </mxGeometry>
        </mxCell>
        <mxCell id="FcI4tEpsbTkB4p8tI-y6-12" value="Cloud&#xa;Functions" style="sketch=0;html=1;verticalAlign=top;labelPosition=center;verticalLabelPosition=bottom;align=center;spacingTop=-6;fontSize=11;fontStyle=1;shape=image;aspect=fixed;imageAspect=0;image=data:image/svg+xml,PHN2ZyB4bWxucz0iaHR0cDovL3d3dy53My5vcmcvMjAwMC9zdmciIHhtbG5zOnY9Imh0dHBzOi8vdmVjdGEuaW8vbmFubyIgd2lkdGg9IjIwIiBoZWlnaHQ9IjE5Ljk4OTk5OTc3MTExODE2NCIgdmlld0JveD0iMCAwIDIwIDE5Ljk4OTk5OTc3MTExODE2NCI+JiN4YTsJPHN0eWxlIHR5cGU9InRleHQvY3NzIj4mI3hhOwkuc3Qwe2ZpbGw6IzQyODVmNDt9JiN4YTsJLnN0MXtmaWxsOiM2NjlkZjY7fSYjeGE7CS5zdDJ7ZmlsbDojYWVjYmZhO30mI3hhOwk8L3N0eWxlPiYjeGE7CTxwYXRoIGNsYXNzPSJzdDEiIGQ9Ik0zIDMuOTlMMCA2LjQydjcuMTNsMyAyLjQ0eiIvPiYjeGE7CTxwYXRoIGNsYXNzPSJzdDAiIGQ9Ik0zIDMuOTlsLTMgNCAzLTJ6bS0zIDhsMyA0di0yeiIvPiYjeGE7CTxwYXRoIGNsYXNzPSJzdDIiIGQ9Ik0wIDE1Ljk5bDQgNCAyLTItNi02em0uMDEtOEw1Ljk5IDJsLTItMkwwIDMuOTl6Ii8+JiN4YTsJPHBhdGggY2xhc3M9InN0MSIgZD0iTTE3IDE2bDMtMi40MlY2LjQ0TDE3IDR6Ii8+JiN4YTsJPHBhdGggY2xhc3M9InN0MCIgZD0iTTE3IDE2bDMtNC0zIDJ6bTMtOGwtMy00djJ6Ii8+JiN4YTsJPGcgY2xhc3M9InN0MiI+JiN4YTsJCTxwYXRoIGQ9Ik0yMCA0bC00LTQtMiAyIDYgNnptLS4wMSA4bC01Ljk4IDUuOTkgMiAyTDIwIDE2eiIvPiYjeGE7CQk8Y2lyY2xlIGN4PSI2IiBjeT0iOS45OSIgcj0iMSIvPiYjeGE7CQk8Y2lyY2xlIGN4PSIxMCIgY3k9IjkuOTkiIHI9IjEiLz4mI3hhOwkJPGNpcmNsZSBjeD0iMTMuOTkiIGN5PSI5Ljk5IiByPSIxIi8+JiN4YTsJPC9nPiYjeGE7PC9zdmc+;noLabel=1;fillColor=#dae8fc;strokeColor=#6c8ebf;" parent="1" vertex="1">
          <mxGeometry x="281.48" y="545" width="37.05" height="30" as="geometry" />
        </mxCell>
        <mxCell id="FcI4tEpsbTkB4p8tI-y6-13" value="Google Kubernetes&#xa;Engine" style="sketch=0;html=1;verticalAlign=top;labelPosition=center;verticalLabelPosition=bottom;align=center;spacingTop=-6;fontSize=11;fontStyle=1;shape=image;aspect=fixed;imageAspect=0;image=data:image/svg+xml,PHN2ZyB4bWxucz0iaHR0cDovL3d3dy53My5vcmcvMjAwMC9zdmciIHhtbG5zOnY9Imh0dHBzOi8vdmVjdGEuaW8vbmFubyIgd2lkdGg9IjMyOS45MjU5OTcyMzE3OTM4IiBoZWlnaHQ9IjM3OC4yODQ5OTAzMTEyNzg4IiB2aWV3Qm94PSIwIDAgODcuMjkyOTk5MjY3NTc4MTIgMTAwLjA4Nzk5NzQzNjUyMzQ0Ij4mI3hhOzxzdHlsZSB0eXBlPSJ0ZXh0L2NzcyI+JiN4YTsJLnN0MHtmaWxsOiNhZWNiZmE7fSYjeGE7CS5zdDF7ZmlsbDojNjY5ZGY2O30mI3hhOwkuc3Qye2ZpbGw6IzQyODVmNDt9JiN4YTs8L3N0eWxlPiYjeGE7CTxwYXRoIGNsYXNzPSJzdDAiIGQ9Ik00My43NTEgMEwwIDI1LjQ2NXYyLjU4OCA0Ni45Mmw0My43NTIgMjUuMTE1IDQzLjU0MS0yNS4xMjFWMjUuNDczem0yLjQzOCAxMS44NTNsMzIuMTAzIDE4Ljc4MlY2OS43N0w0My43MzkgODkuNzA1IDkgNjkuNzYyVjMwLjY0MWwzMi4xOS0xOC43MzZ2MTQuMTU0TDI0LjUwMyAzNi4xNTNsMTkuMTcyIDExLjUwMiAxOC44ODYtMTEuNTU0LTE2LjM3Mi0xMC4wMjR6Ii8+JiN4YTsJPHBhdGggY2xhc3M9InN0MSIgZD0iTTIyLjAyNSA0MC40OTZsLjE2NiAxOS4xNDMtMTMuMjQ3IDcuMzN2Mi43NDJsMi42MzcgMS41MTQgMTIuNjQ4LTYuOTk5IDE2Ljk2MSAxMC42MDJWNTEuOTkzeiIvPiYjeGE7CTxwYXRoIGNsYXNzPSJzdDIiIGQ9Ik02NS4zNDQgNDAuMjZMNDYuMTg5IDUxLjk3OXYyMi44NDdsMTYuODk5LTEwLjU3NiAxMi41MzkgNi45NzQgMi42MDktMS41MDV2LTIuNzY1bC0xMi43ODQtNy4xMTJ6Ii8+JiN4YTs8L3N2Zz4=;noLabel=1;fillColor=#dae8fc;strokeColor=#6c8ebf;" parent="1" vertex="1">
          <mxGeometry x="190" y="537.5" width="35.24" height="40" as="geometry" />
        </mxCell>
        <mxCell id="FcI4tEpsbTkB4p8tI-y6-14" value="&lt;font style=&quot;font-size: 7px; font-weight: normal;&quot; face=&quot;Comic Sans MS&quot;&gt;GKE&lt;/font&gt;" style="sketch=0;html=1;verticalAlign=top;labelPosition=center;verticalLabelPosition=bottom;align=center;spacingTop=-6;fontSize=11;fontStyle=1;shape=image;aspect=fixed;imageAspect=0;image=data:image/svg+xml,PHN2ZyB4bWxucz0iaHR0cDovL3d3dy53My5vcmcvMjAwMC9zdmciIHhtbG5zOnY9Imh0dHBzOi8vdmVjdGEuaW8vbmFubyIgd2lkdGg9IjMyOS45MjU5OTcyMzE3OTM4IiBoZWlnaHQ9IjM3OC4yODQ5OTAzMTEyNzg4IiB2aWV3Qm94PSIwIDAgODcuMjkyOTk5MjY3NTc4MTIgMTAwLjA4Nzk5NzQzNjUyMzQ0Ij4mI3hhOzxzdHlsZSB0eXBlPSJ0ZXh0L2NzcyI+JiN4YTsJLnN0MHtmaWxsOiNhZWNiZmE7fSYjeGE7CS5zdDF7ZmlsbDojNjY5ZGY2O30mI3hhOwkuc3Qye2ZpbGw6IzQyODVmNDt9JiN4YTs8L3N0eWxlPiYjeGE7CTxwYXRoIGNsYXNzPSJzdDAiIGQ9Ik00My43NTEgMEwwIDI1LjQ2NXYyLjU4OCA0Ni45Mmw0My43NTIgMjUuMTE1IDQzLjU0MS0yNS4xMjFWMjUuNDczem0yLjQzOCAxMS44NTNsMzIuMTAzIDE4Ljc4MlY2OS43N0w0My43MzkgODkuNzA1IDkgNjkuNzYyVjMwLjY0MWwzMi4xOS0xOC43MzZ2MTQuMTU0TDI0LjUwMyAzNi4xNTNsMTkuMTcyIDExLjUwMiAxOC44ODYtMTEuNTU0LTE2LjM3Mi0xMC4wMjR6Ii8+JiN4YTsJPHBhdGggY2xhc3M9InN0MSIgZD0iTTIyLjAyNSA0MC40OTZsLjE2NiAxOS4xNDMtMTMuMjQ3IDcuMzN2Mi43NDJsMi42MzcgMS41MTQgMTIuNjQ4LTYuOTk5IDE2Ljk2MSAxMC42MDJWNTEuOTkzeiIvPiYjeGE7CTxwYXRoIGNsYXNzPSJzdDIiIGQ9Ik02NS4zNDQgNDAuMjZMNDYuMTg5IDUxLjk3OXYyMi44NDdsMTYuODk5LTEwLjU3NiAxMi41MzkgNi45NzQgMi42MDktMS41MDV2LTIuNzY1bC0xMi43ODQtNy4xMTJ6Ii8+JiN4YTs8L3N2Zz4=;fillColor=#dae8fc;strokeColor=#6c8ebf;fontColor=default;" parent="1" vertex="1">
          <mxGeometry x="190.38" y="577.5" width="35.24" height="40" as="geometry" />
        </mxCell>
        <mxCell id="FcI4tEpsbTkB4p8tI-y6-43" style="edgeStyle=orthogonalEdgeStyle;rounded=0;orthogonalLoop=1;jettySize=auto;html=1;endArrow=classic;endFill=1;fillColor=#dae8fc;strokeColor=#6c8ebf;" parent="1" source="FcI4tEpsbTkB4p8tI-y6-15" edge="1">
          <mxGeometry relative="1" as="geometry">
            <mxPoint x="250" y="820" as="targetPoint" />
            <Array as="points">
              <mxPoint x="250" y="655" />
              <mxPoint x="250" y="820" />
            </Array>
          </mxGeometry>
        </mxCell>
        <mxCell id="FcI4tEpsbTkB4p8tI-y6-15" value="" style="editableCssRules=.*;html=1;shape=image;verticalLabelPosition=bottom;labelBackgroundColor=none;verticalAlign=top;aspect=fixed;imageAspect=0;image=data:image/svg+xml,PHN2ZyB4bWxucz0iaHR0cDovL3d3dy53My5vcmcvMjAwMC9zdmciIHhtbG5zOnY9Imh0dHBzOi8vdmVjdGEuaW8vbmFubyIgd2lkdGg9IjE0LjY1OTk5OTg0NzQxMjExIiBoZWlnaHQ9IjIwIiB2aWV3Qm94PSIwIDAgMTQuNjU5OTk5ODQ3NDEyMTEgMjAiPiYjeGE7CTxzdHlsZSB0eXBlPSJ0ZXh0L2NzcyI+JiN4YTsJLnN0MHtmaWxsOiM0Mjg1ZjQ7fSYjeGE7CS5zdDF7ZmlsbDojNjY5ZGY2O30mI3hhOwkuc3Qye2ZpbGw6I2FlY2JmYTt9JiN4YTsJPC9zdHlsZT4mI3hhOwk8c3R5bGU+JiN4YTsJCS5Ee2ZpbGwtcnVsZTpldmVub2RkfSYjeGE7CTwvc3R5bGU+JiN4YTsJPHBhdGggZD0iTTcuMzMgMTUuMzV2LTMuMDFMMCA4LjQ0djMuMDF6bTAgNC42NXYtMy4wMUwwIDEzLjA5djMuMDF6IiBjbGFzcz0ic3QyIEQiLz4mI3hhOwk8cGF0aCBkPSJNMTQuNjYgOC40NGwtNy4zMyAzLjl2My4wMWw3LjMzLTMuOXptMCA0LjY1bC03LjMzIDMuOVYyMGw3LjMzLTMuOXoiIGNsYXNzPSJzdDEgRCIvPiYjeGE7CTxwYXRoIGQ9Ik03LjMzIDB2My4wMWw3LjMzIDMuOVYzLjl6IiBjbGFzcz0ic3QwIEQiLz4mI3hhOwk8cGF0aCBkPSJNMCA2LjkxbDcuMzMtMy45VjBMMCAzLjl6IiBjbGFzcz0iRCBzdDEiLz4mI3hhOwk8cGF0aCBkPSJNNy4zMyAxMC43OVY3Ljc3TDAgMy44N3YzLjAyeiIgY2xhc3M9IkQgc3QyIi8+JiN4YTsJPHBhdGggZD0iTTE0LjY2IDMuODdsLTcuMzMgMy45djMuMDJsNy4zMy0zLjl6IiBjbGFzcz0iRCBzdDEiLz4mI3hhOzwvc3ZnPg==;fillColor=#dae8fc;strokeColor=#6c8ebf;imageBackground=none;" parent="1" vertex="1">
          <mxGeometry x="194.5" y="636.59" width="26.25" height="35" as="geometry" />
        </mxCell>
        <mxCell id="FcI4tEpsbTkB4p8tI-y6-47" style="edgeStyle=orthogonalEdgeStyle;rounded=0;orthogonalLoop=1;jettySize=auto;html=1;endArrow=classic;endFill=1;fillColor=#dae8fc;strokeColor=#6c8ebf;" parent="1" source="FcI4tEpsbTkB4p8tI-y6-17" edge="1">
          <mxGeometry relative="1" as="geometry">
            <mxPoint x="80" y="820" as="targetPoint" />
            <Array as="points">
              <mxPoint x="80" y="732" />
              <mxPoint x="80" y="732" />
            </Array>
          </mxGeometry>
        </mxCell>
        <mxCell id="FcI4tEpsbTkB4p8tI-y6-17" value="&lt;font style=&quot;font-size: 5px;&quot;&gt;Cloud Functions&lt;/font&gt;" style="sketch=0;html=1;verticalAlign=top;labelPosition=center;verticalLabelPosition=bottom;align=center;spacingTop=-6;fontSize=11;fontStyle=1;shape=image;aspect=fixed;imageAspect=0;image=data:image/svg+xml,PHN2ZyB4bWxucz0iaHR0cDovL3d3dy53My5vcmcvMjAwMC9zdmciIHhtbG5zOnY9Imh0dHBzOi8vdmVjdGEuaW8vbmFubyIgd2lkdGg9IjIwIiBoZWlnaHQ9IjE5Ljk4OTk5OTc3MTExODE2NCIgdmlld0JveD0iMCAwIDIwIDE5Ljk4OTk5OTc3MTExODE2NCI+JiN4YTsJPHN0eWxlIHR5cGU9InRleHQvY3NzIj4mI3hhOwkuc3Qwe2ZpbGw6IzQyODVmNDt9JiN4YTsJLnN0MXtmaWxsOiM2NjlkZjY7fSYjeGE7CS5zdDJ7ZmlsbDojYWVjYmZhO30mI3hhOwk8L3N0eWxlPiYjeGE7CTxwYXRoIGNsYXNzPSJzdDEiIGQ9Ik0zIDMuOTlMMCA2LjQydjcuMTNsMyAyLjQ0eiIvPiYjeGE7CTxwYXRoIGNsYXNzPSJzdDAiIGQ9Ik0zIDMuOTlsLTMgNCAzLTJ6bS0zIDhsMyA0di0yeiIvPiYjeGE7CTxwYXRoIGNsYXNzPSJzdDIiIGQ9Ik0wIDE1Ljk5bDQgNCAyLTItNi02em0uMDEtOEw1Ljk5IDJsLTItMkwwIDMuOTl6Ii8+JiN4YTsJPHBhdGggY2xhc3M9InN0MSIgZD0iTTE3IDE2bDMtMi40MlY2LjQ0TDE3IDR6Ii8+JiN4YTsJPHBhdGggY2xhc3M9InN0MCIgZD0iTTE3IDE2bDMtNC0zIDJ6bTMtOGwtMy00djJ6Ii8+JiN4YTsJPGcgY2xhc3M9InN0MiI+JiN4YTsJCTxwYXRoIGQ9Ik0yMCA0bC00LTQtMiAyIDYgNnptLS4wMSA4bC01Ljk4IDUuOTkgMiAyTDIwIDE2eiIvPiYjeGE7CQk8Y2lyY2xlIGN4PSI2IiBjeT0iOS45OSIgcj0iMSIvPiYjeGE7CQk8Y2lyY2xlIGN4PSIxMCIgY3k9IjkuOTkiIHI9IjEiLz4mI3hhOwkJPGNpcmNsZSBjeD0iMTMuOTkiIGN5PSI5Ljk5IiByPSIxIi8+JiN4YTsJPC9nPiYjeGE7PC9zdmc+;fillColor=#dae8fc;strokeColor=#6c8ebf;fontColor=default;fontFamily=Comic Sans MS;" parent="1" vertex="1">
          <mxGeometry x="62.90000000000002" y="635" width="37.05" height="30" as="geometry" />
        </mxCell>
        <mxCell id="FcI4tEpsbTkB4p8tI-y6-90" style="edgeStyle=orthogonalEdgeStyle;rounded=0;orthogonalLoop=1;jettySize=auto;html=1;endArrow=none;endFill=0;" parent="1" edge="1">
          <mxGeometry relative="1" as="geometry">
            <mxPoint x="500" y="690" as="targetPoint" />
            <mxPoint x="330" y="608" as="sourcePoint" />
          </mxGeometry>
        </mxCell>
        <mxCell id="FcI4tEpsbTkB4p8tI-y6-112" value="443" style="edgeLabel;html=1;align=center;verticalAlign=middle;resizable=0;points=[];fontSize=8;fontFamily=Comic Sans MS;" parent="FcI4tEpsbTkB4p8tI-y6-90" vertex="1" connectable="0">
          <mxGeometry x="-0.7117" y="1" relative="1" as="geometry">
            <mxPoint as="offset" />
          </mxGeometry>
        </mxCell>
        <mxCell id="FcI4tEpsbTkB4p8tI-y6-20" value="" style="shape=image;verticalLabelPosition=bottom;labelBackgroundColor=default;verticalAlign=top;aspect=fixed;imageAspect=0;image=https://dt-cdn.net/hub/logos/activegate.png;fillColor=#dae8fc;strokeColor=#6c8ebf;" parent="1" vertex="1">
          <mxGeometry x="277" y="584.5" width="46" height="46" as="geometry" />
        </mxCell>
        <mxCell id="FcI4tEpsbTkB4p8tI-y6-21" value="" style="shape=image;verticalLabelPosition=bottom;labelBackgroundColor=default;verticalAlign=top;aspect=fixed;imageAspect=0;image=https://dt-cdn.net/hub/logos/activegate.png;fillColor=#dae8fc;strokeColor=#6c8ebf;" parent="1" vertex="1">
          <mxGeometry x="277" y="630.5" width="46" height="46" as="geometry" />
        </mxCell>
        <mxCell id="FcI4tEpsbTkB4p8tI-y6-22" value="BT GCP Perimeter" style="text;html=1;align=center;verticalAlign=middle;resizable=0;points=[];autosize=1;strokeColor=none;fillColor=none;fontFamily=Comic Sans MS;fontSize=10;" parent="1" vertex="1">
          <mxGeometry x="84.5" y="730" width="110" height="30" as="geometry" />
        </mxCell>
        <mxCell id="FcI4tEpsbTkB4p8tI-y6-27" value="" style="edgeStyle=none;orthogonalLoop=1;jettySize=auto;html=1;rounded=0;endArrow=classic;endFill=1;fillColor=#dae8fc;strokeColor=#6c8ebf;" parent="1" edge="1">
          <mxGeometry width="100" relative="1" as="geometry">
            <mxPoint x="20" y="420" as="sourcePoint" />
            <mxPoint x="300" y="420" as="targetPoint" />
            <Array as="points" />
          </mxGeometry>
        </mxCell>
        <mxCell id="FcI4tEpsbTkB4p8tI-y6-109" value="&lt;div&gt;443&lt;br&gt;&lt;/div&gt;" style="edgeLabel;html=1;align=center;verticalAlign=middle;resizable=0;points=[];fontSize=8;fontFamily=Comic Sans MS;" parent="FcI4tEpsbTkB4p8tI-y6-27" vertex="1" connectable="0">
          <mxGeometry x="-0.1452" y="-1" relative="1" as="geometry">
            <mxPoint as="offset" />
          </mxGeometry>
        </mxCell>
        <mxCell id="FcI4tEpsbTkB4p8tI-y6-28" value="" style="edgeStyle=none;orthogonalLoop=1;jettySize=auto;html=1;rounded=0;fillColor=#dae8fc;strokeColor=#6c8ebf;" parent="1" target="FcI4tEpsbTkB4p8tI-y6-12" edge="1">
          <mxGeometry width="100" relative="1" as="geometry">
            <mxPoint x="299.72" y="420" as="sourcePoint" />
            <mxPoint x="299.72" y="490" as="targetPoint" />
            <Array as="points" />
          </mxGeometry>
        </mxCell>
        <mxCell id="FcI4tEpsbTkB4p8tI-y6-37" value="" style="edgeStyle=none;orthogonalLoop=1;jettySize=auto;html=1;rounded=0;exitX=0.5;exitY=1;exitDx=0;exitDy=0;fillColor=#dae8fc;strokeColor=#6c8ebf;entryX=0.5;entryY=1;entryDx=0;entryDy=0;" parent="1" source="FcI4tEpsbTkB4p8tI-y6-11" target="FcI4tEpsbTkB4p8tI-y6-41" edge="1">
          <mxGeometry width="100" relative="1" as="geometry">
            <mxPoint x="155" y="554.76" as="sourcePoint" />
            <mxPoint x="277" y="610.2692307692307" as="targetPoint" />
            <Array as="points">
              <mxPoint x="138" y="720" />
              <mxPoint x="300" y="720" />
            </Array>
          </mxGeometry>
        </mxCell>
        <mxCell id="FcI4tEpsbTkB4p8tI-y6-115" value="&lt;font style=&quot;font-size: 6px;&quot; face=&quot;Comic Sans MS&quot;&gt;9999&lt;/font&gt;" style="edgeLabel;html=1;align=center;verticalAlign=middle;resizable=0;points=[];fontSize=8;" parent="FcI4tEpsbTkB4p8tI-y6-37" vertex="1" connectable="0">
          <mxGeometry x="0.1898" relative="1" as="geometry">
            <mxPoint as="offset" />
          </mxGeometry>
        </mxCell>
        <mxCell id="FcI4tEpsbTkB4p8tI-y6-44" value="" style="edgeStyle=none;orthogonalLoop=1;jettySize=auto;html=1;rounded=0;endArrow=classic;endFill=1;fillColor=#dae8fc;strokeColor=#6c8ebf;" parent="1" edge="1">
          <mxGeometry width="100" relative="1" as="geometry">
            <mxPoint x="80" y="820" as="sourcePoint" />
            <mxPoint x="10" y="820" as="targetPoint" />
            <Array as="points" />
          </mxGeometry>
        </mxCell>
        <mxCell id="FcI4tEpsbTkB4p8tI-y6-45" value="" style="edgeStyle=none;orthogonalLoop=1;jettySize=auto;html=1;rounded=0;endArrow=classic;endFill=1;fillColor=#dae8fc;strokeColor=#6c8ebf;" parent="1" edge="1">
          <mxGeometry width="100" relative="1" as="geometry">
            <mxPoint x="10" y="820" as="sourcePoint" />
            <mxPoint x="10" y="400" as="targetPoint" />
            <Array as="points" />
          </mxGeometry>
        </mxCell>
        <mxCell id="FcI4tEpsbTkB4p8tI-y6-48" value="" style="edgeStyle=none;orthogonalLoop=1;jettySize=auto;html=1;rounded=0;endArrow=none;endFill=0;fillColor=#dae8fc;strokeColor=#6c8ebf;" parent="1" edge="1">
          <mxGeometry width="100" relative="1" as="geometry">
            <mxPoint x="80" y="820" as="sourcePoint" />
            <mxPoint x="250" y="820" as="targetPoint" />
            <Array as="points">
              <mxPoint x="160" y="820" />
            </Array>
          </mxGeometry>
        </mxCell>
        <mxCell id="FcI4tEpsbTkB4p8tI-y6-49" value="" style="shape=image;verticalLabelPosition=bottom;labelBackgroundColor=default;verticalAlign=top;aspect=fixed;imageAspect=0;image=https://dt-cdn.net/hub/logos/oneagent.png;" parent="1" vertex="1">
          <mxGeometry x="124.75" y="602" width="25.5" height="25.5" as="geometry" />
        </mxCell>
        <mxCell id="FcI4tEpsbTkB4p8tI-y6-51" value="" style="shape=image;verticalLabelPosition=bottom;labelBackgroundColor=default;verticalAlign=top;aspect=fixed;imageAspect=0;image=https://dt-cdn.net/hub/logos/oneagent.png;" parent="1" vertex="1">
          <mxGeometry x="132.25" y="544.75" width="25.5" height="25.5" as="geometry" />
        </mxCell>
        <mxCell id="FcI4tEpsbTkB4p8tI-y6-53" style="edgeStyle=orthogonalEdgeStyle;rounded=0;orthogonalLoop=1;jettySize=auto;html=1;entryX=-0.002;entryY=0.584;entryDx=0;entryDy=0;entryPerimeter=0;fillColor=#dae8fc;strokeColor=#6c8ebf;" parent="1" source="FcI4tEpsbTkB4p8tI-y6-13" target="FcI4tEpsbTkB4p8tI-y6-41" edge="1">
          <mxGeometry relative="1" as="geometry" />
        </mxCell>
        <mxCell id="FcI4tEpsbTkB4p8tI-y6-56" value="" style="edgeStyle=none;orthogonalLoop=1;jettySize=auto;html=1;rounded=0;endArrow=none;endFill=0;" parent="1" source="FcI4tEpsbTkB4p8tI-y6-7" edge="1">
          <mxGeometry width="100" relative="1" as="geometry">
            <mxPoint x="210" y="627.5" as="sourcePoint" />
            <mxPoint x="240" y="627.5" as="targetPoint" />
            <Array as="points" />
          </mxGeometry>
        </mxCell>
        <mxCell id="FcI4tEpsbTkB4p8tI-y6-64" style="rounded=0;orthogonalLoop=1;jettySize=auto;html=1;entryX=-0.003;entryY=0.167;entryDx=0;entryDy=0;entryPerimeter=0;endArrow=classic;endFill=1;fillColor=#dae8fc;strokeColor=#6c8ebf;" parent="1" source="FcI4tEpsbTkB4p8tI-y6-14" target="FcI4tEpsbTkB4p8tI-y6-41" edge="1">
          <mxGeometry relative="1" as="geometry" />
        </mxCell>
        <mxCell id="FcI4tEpsbTkB4p8tI-y6-66" value="&lt;font style=&quot;font-size: 7px;&quot;&gt;BigQuery&lt;/font&gt;" style="text;html=1;align=center;verticalAlign=middle;resizable=0;points=[];autosize=1;strokeColor=none;fillColor=none;fontFamily=Comic Sans MS;" parent="1" vertex="1">
          <mxGeometry x="57.620000000000005" y="560" width="50" height="30" as="geometry" />
        </mxCell>
        <mxCell id="FcI4tEpsbTkB4p8tI-y6-67" style="rounded=0;orthogonalLoop=1;jettySize=auto;html=1;exitX=1;exitY=0.4;exitDx=0;exitDy=0;exitPerimeter=0;" parent="1" source="FcI4tEpsbTkB4p8tI-y6-41" edge="1">
          <mxGeometry relative="1" as="geometry">
            <mxPoint x="400" y="521.990800229365" as="sourcePoint" />
            <mxPoint x="520" y="621" as="targetPoint" />
          </mxGeometry>
        </mxCell>
        <mxCell id="FcI4tEpsbTkB4p8tI-y6-113" value="443" style="edgeLabel;html=1;align=center;verticalAlign=middle;resizable=0;points=[];fontSize=8;fontFamily=Comic Sans MS;" parent="FcI4tEpsbTkB4p8tI-y6-67" vertex="1" connectable="0">
          <mxGeometry x="-0.5895" relative="1" as="geometry">
            <mxPoint as="offset" />
          </mxGeometry>
        </mxCell>
        <mxCell id="FcI4tEpsbTkB4p8tI-y6-69" value="External Connection to Dynatrace" style="text;html=1;align=center;verticalAlign=middle;resizable=0;points=[];autosize=1;strokeColor=none;fillColor=none;fontFamily=Comic Sans MS;fontSize=6;" parent="1" vertex="1">
          <mxGeometry x="380" y="615" width="120" height="20" as="geometry" />
        </mxCell>
        <mxCell id="FcI4tEpsbTkB4p8tI-y6-71" value="" style="shape=image;verticalLabelPosition=bottom;labelBackgroundColor=default;verticalAlign=top;aspect=fixed;imageAspect=0;image=https://seeklogo.com/images/S/servicenow-agent-logo-F71A6DAFCE-seeklogo.com.png;" parent="1" vertex="1">
          <mxGeometry x="640" y="720" width="40" height="40" as="geometry" />
        </mxCell>
        <mxCell id="FcI4tEpsbTkB4p8tI-y6-75" value="" style="shape=image;verticalLabelPosition=bottom;labelBackgroundColor=default;verticalAlign=top;aspect=fixed;imageAspect=0;image=https://miro.medium.com/v2/resize:fit:1196/1*bFbdGnKYSP_dmRS_Yr0sog.png;" parent="1" vertex="1">
          <mxGeometry x="560" y="602" width="97.52" height="37.35" as="geometry" />
        </mxCell>
        <mxCell id="FcI4tEpsbTkB4p8tI-y6-76" value="" style="shape=image;verticalLabelPosition=bottom;labelBackgroundColor=default;verticalAlign=top;aspect=fixed;imageAspect=0;image=https://dt-cdn.net/hub/logos/logs-and-events.png;" parent="1" vertex="1">
          <mxGeometry x="527.18" y="605.42" width="31.17" height="31.17" as="geometry" />
        </mxCell>
        <mxCell id="FcI4tEpsbTkB4p8tI-y6-80" style="edgeStyle=orthogonalEdgeStyle;rounded=0;orthogonalLoop=1;jettySize=auto;html=1;exitX=1;exitY=0.5;exitDx=0;exitDy=0;entryX=0;entryY=0.5;entryDx=0;entryDy=0;" parent="1" source="FcI4tEpsbTkB4p8tI-y6-77" target="FcI4tEpsbTkB4p8tI-y6-71" edge="1">
          <mxGeometry relative="1" as="geometry" />
        </mxCell>
        <mxCell id="FcI4tEpsbTkB4p8tI-y6-81" value="&lt;font style=&quot;font-size: 9px;&quot;&gt;Problem Integration&lt;/font&gt;" style="edgeLabel;html=1;align=center;verticalAlign=middle;resizable=0;points=[];fontFamily=Comic Sans MS;" parent="FcI4tEpsbTkB4p8tI-y6-80" vertex="1" connectable="0">
          <mxGeometry x="0.0687" y="2" relative="1" as="geometry">
            <mxPoint x="-10" y="-10" as="offset" />
          </mxGeometry>
        </mxCell>
        <mxCell id="FcI4tEpsbTkB4p8tI-y6-114" value="443" style="edgeLabel;html=1;align=center;verticalAlign=middle;resizable=0;points=[];fontSize=8;fontFamily=Comic Sans MS;" parent="FcI4tEpsbTkB4p8tI-y6-80" vertex="1" connectable="0">
          <mxGeometry x="0.5331" y="1" relative="1" as="geometry">
            <mxPoint as="offset" />
          </mxGeometry>
        </mxCell>
        <mxCell id="FcI4tEpsbTkB4p8tI-y6-84" value="&lt;span style=&quot;font-family: &amp;quot;Comic Sans MS&amp;quot;; font-size: 6px;&quot;&gt;Cloud SQL&lt;/span&gt;" style="text;html=1;align=center;verticalAlign=middle;resizable=0;points=[];autosize=1;strokeColor=none;fillColor=none;" parent="1" vertex="1">
          <mxGeometry x="183" y="660" width="50" height="30" as="geometry" />
        </mxCell>
        <mxCell id="FcI4tEpsbTkB4p8tI-y6-86" value="&lt;font style=&quot;font-size: 8px;&quot;&gt;Internal GCP Projects&lt;/font&gt;" style="text;html=1;align=center;verticalAlign=middle;resizable=0;points=[];autosize=1;strokeColor=none;fillColor=none;fontFamily=Comic Sans MS;" parent="1" vertex="1">
          <mxGeometry x="89.99999999999999" y="500" width="110" height="30" as="geometry" />
        </mxCell>
        <mxCell id="FcI4tEpsbTkB4p8tI-y6-92" value="" style="edgeStyle=none;orthogonalLoop=1;jettySize=auto;html=1;rounded=0;endArrow=none;endFill=0;" parent="1" edge="1">
          <mxGeometry width="100" relative="1" as="geometry">
            <mxPoint x="500" y="689.52" as="sourcePoint" />
            <mxPoint x="580" y="690" as="targetPoint" />
            <Array as="points" />
          </mxGeometry>
        </mxCell>
        <mxCell id="FcI4tEpsbTkB4p8tI-y6-93" value="" style="edgeStyle=none;orthogonalLoop=1;jettySize=auto;html=1;rounded=0;endArrow=classic;endFill=1;" parent="1" edge="1">
          <mxGeometry width="100" relative="1" as="geometry">
            <mxPoint x="580" y="690" as="sourcePoint" />
            <mxPoint x="580" y="650" as="targetPoint" />
            <Array as="points" />
          </mxGeometry>
        </mxCell>
        <mxCell id="FcI4tEpsbTkB4p8tI-y6-94" value="&lt;font style=&quot;font-size: 8px;&quot;&gt;OneAgent Traffic from GCP&lt;/font&gt;" style="text;html=1;align=center;verticalAlign=middle;resizable=0;points=[];autosize=1;strokeColor=none;fillColor=none;fontFamily=Comic Sans MS;" parent="1" vertex="1">
          <mxGeometry x="375" y="585" width="130" height="30" as="geometry" />
        </mxCell>
        <mxCell id="FcI4tEpsbTkB4p8tI-y6-96" value="" style="edgeStyle=none;orthogonalLoop=1;jettySize=auto;html=1;rounded=0;endArrow=classic;endFill=1;fillColor=#dae8fc;strokeColor=#6c8ebf;" parent="1" edge="1">
          <mxGeometry width="100" relative="1" as="geometry">
            <mxPoint x="10" y="400" as="sourcePoint" />
            <mxPoint x="250" y="400" as="targetPoint" />
            <Array as="points">
              <mxPoint x="90" y="400" />
            </Array>
          </mxGeometry>
        </mxCell>
        <mxCell id="FcI4tEpsbTkB4p8tI-y6-110" value="&lt;div&gt;443&lt;br&gt;&lt;/div&gt;" style="edgeLabel;html=1;align=center;verticalAlign=middle;resizable=0;points=[];fontSize=8;fontFamily=Comic Sans MS;" parent="FcI4tEpsbTkB4p8tI-y6-96" vertex="1" connectable="0">
          <mxGeometry x="0.0222" relative="1" as="geometry">
            <mxPoint as="offset" />
          </mxGeometry>
        </mxCell>
        <mxCell id="FcI4tEpsbTkB4p8tI-y6-97" style="edgeStyle=orthogonalEdgeStyle;rounded=0;orthogonalLoop=1;jettySize=auto;html=1;endArrow=none;endFill=0;fillColor=#dae8fc;strokeColor=#6c8ebf;" parent="1" edge="1">
          <mxGeometry relative="1" as="geometry">
            <mxPoint x="250" y="550" as="targetPoint" />
            <mxPoint x="250" y="400" as="sourcePoint" />
            <Array as="points">
              <mxPoint x="250" y="467" />
              <mxPoint x="250" y="467" />
            </Array>
          </mxGeometry>
        </mxCell>
        <mxCell id="FcI4tEpsbTkB4p8tI-y6-98" style="rounded=0;orthogonalLoop=1;jettySize=auto;html=1;endArrow=classic;endFill=1;fillColor=#dae8fc;strokeColor=#6c8ebf;" parent="1" edge="1">
          <mxGeometry relative="1" as="geometry">
            <mxPoint x="250" y="550" as="sourcePoint" />
            <mxPoint x="280" y="550" as="targetPoint" />
          </mxGeometry>
        </mxCell>
        <mxCell id="FcI4tEpsbTkB4p8tI-y6-103" value="&lt;font style=&quot;font-size: 8px;&quot;&gt;CoE Project&lt;/font&gt;" style="text;html=1;align=center;verticalAlign=middle;resizable=0;points=[];autosize=1;strokeColor=none;fillColor=none;fontFamily=Comic Sans MS;" parent="1" vertex="1">
          <mxGeometry x="290" y="680" width="70" height="30" as="geometry" />
        </mxCell>
        <mxCell id="FcI4tEpsbTkB4p8tI-y6-104" value="&lt;font style=&quot;font-size: 6px;&quot;&gt;ActiveGates&lt;/font&gt;" style="text;html=1;align=center;verticalAlign=middle;resizable=0;points=[];autosize=1;strokeColor=none;fillColor=none;" parent="1" vertex="1">
          <mxGeometry x="270.01" y="565.6800000000001" width="60" height="30" as="geometry" />
        </mxCell>
        <mxCell id="FcI4tEpsbTkB4p8tI-y6-105" value="&lt;font face=&quot;Comic Sans MS&quot; style=&quot;font-size: 6px;&quot;&gt;9999&lt;/font&gt;" style="text;html=1;align=center;verticalAlign=middle;resizable=0;points=[];autosize=1;strokeColor=none;fillColor=none;" parent="1" vertex="1">
          <mxGeometry x="225" y="585" width="40" height="30" as="geometry" />
        </mxCell>
        <mxCell id="FcI4tEpsbTkB4p8tI-y6-108" value="&lt;div&gt;&lt;span style=&quot;font-size: 4px; font-family: &amp;quot;Comic Sans MS&amp;quot;;&quot;&gt;9999&lt;/span&gt;&lt;br&gt;&lt;/div&gt;" style="text;html=1;align=center;verticalAlign=middle;resizable=0;points=[];autosize=1;strokeColor=none;fillColor=none;" parent="1" vertex="1">
          <mxGeometry x="235.01" y="625" width="30" height="30" as="geometry" />
        </mxCell>
        <mxCell id="I9L3Uxg7V00W_K4pjEG--1" value="" style="shape=image;verticalLabelPosition=bottom;labelBackgroundColor=default;verticalAlign=top;aspect=fixed;imageAspect=0;image=https://seeklogo.com/images/D/dynatrace-logo-0B89594073-seeklogo.com.png;" vertex="1" parent="1">
          <mxGeometry x="628.92" y="545" width="41.08" height="41.5" as="geometry" />
        </mxCell>
      </root>
    </mxGraphModel>
  </diagram>
  <diagram id="O2PEFDk6BCdnhCuWFOpD" name="Page-2">
    <mxGraphModel dx="1545" dy="834" grid="1" gridSize="10" guides="1" tooltips="1" connect="1" arrows="1" fold="1" page="1" pageScale="1" pageWidth="827" pageHeight="1169" math="0" shadow="0">
      <root>
        <mxCell id="0" />
        <mxCell id="1" parent="0" />
        <mxCell id="yAwv_0xbP1rgqaZoiGZm-2" value="" style="rounded=1;whiteSpace=wrap;html=1;fillColor=none;" vertex="1" parent="1">
          <mxGeometry x="747.25" y="510" width="260" height="229.47" as="geometry" />
        </mxCell>
        <mxCell id="yAwv_0xbP1rgqaZoiGZm-4" value="" style="rounded=1;whiteSpace=wrap;html=1;fontColor=default;fillColor=none;dashed=1;" vertex="1" parent="1">
          <mxGeometry x="1.3" y="231.25" width="1208.7" height="608.75" as="geometry" />
        </mxCell>
        <mxCell id="IVblQwggJsGfgOUuLyKI-2" value="" style="rounded=1;whiteSpace=wrap;html=1;fillColor=none;strokeColor=#6c8ebf;fontFamily=Comic Sans MS;fontSize=8;" vertex="1" parent="1">
          <mxGeometry x="16.19" y="310" width="993.81" height="170" as="geometry" />
        </mxCell>
        <mxCell id="IVblQwggJsGfgOUuLyKI-3" value="" style="rounded=1;whiteSpace=wrap;html=1;fillColor=none;" vertex="1" parent="1">
          <mxGeometry x="1550" y="555.75" width="150" height="50" as="geometry" />
        </mxCell>
        <mxCell id="IVblQwggJsGfgOUuLyKI-5" value="" style="rounded=1;whiteSpace=wrap;html=1;fillColor=none;strokeColor=#A9C4EB;" vertex="1" parent="1">
          <mxGeometry x="851.5" y="591.72" width="60" height="100" as="geometry" />
        </mxCell>
        <mxCell id="IVblQwggJsGfgOUuLyKI-8" value="" style="sketch=0;html=1;aspect=fixed;strokeColor=#6c8ebf;shadow=0;fillColor=#dae8fc;verticalAlign=top;labelPosition=center;verticalLabelPosition=bottom;shape=mxgraph.gcp2.big_query" vertex="1" parent="1">
          <mxGeometry x="73.29999999999998" y="524.75" width="34.65" height="35" as="geometry" />
        </mxCell>
        <mxCell id="IVblQwggJsGfgOUuLyKI-10" value="" style="sketch=0;html=1;aspect=fixed;strokeColor=#6c8ebf;shadow=0;fillColor=#dae8fc;verticalAlign=top;labelPosition=center;verticalLabelPosition=bottom;shape=mxgraph.gcp2.big_query" vertex="1" parent="1">
          <mxGeometry x="73.29999999999998" y="574.75" width="34.65" height="35" as="geometry" />
        </mxCell>
        <mxCell id="IVblQwggJsGfgOUuLyKI-13" value="Compute&#xa;Engine" style="sketch=0;html=1;verticalAlign=top;labelPosition=center;verticalLabelPosition=bottom;align=center;spacingTop=-6;fontSize=4;fontStyle=0;shape=image;aspect=fixed;imageAspect=0;image=data:image/svg+xml,PHN2ZyB4bWxucz0iaHR0cDovL3d3dy53My5vcmcvMjAwMC9zdmciIHhtbG5zOnY9Imh0dHBzOi8vdmVjdGEuaW8vbmFubyIgd2lkdGg9IjIwIiBoZWlnaHQ9IjIwIiB2aWV3Qm94PSIwIDAgMjAgMjAiPiYjeGE7CTxzdHlsZSB0eXBlPSJ0ZXh0L2NzcyI+JiN4YTsJLnN0MHtmaWxsOiM0Mjg1ZjQ7fSYjeGE7CS5zdDF7ZmlsbDojNjY5ZGY2O30mI3hhOwkuc3Qye2ZpbGw6I2FlY2JmYTt9JiN4YTsJPC9zdHlsZT4mI3hhOwk8cGF0aCBjbGFzcz0ic3QyIiBkPSJNNyA3aDZ2Nkg3eiIvPiYjeGE7CTxwYXRoIGNsYXNzPSJzdDEiIGQ9Ik05IDBoMnY0SDl6TTUgMGgydjRINXptOCAwaDJ2NGgtMnoiLz4mI3hhOwk8cGF0aCBjbGFzcz0ic3QwIiBkPSJNOSAxNmgydjRIOXptLTQgMGgydjRINXptOCAwaDJ2NGgtMnptMy01VjloNHYyem0wIDR2LTJoNHYyem0wLThWNWg0djJ6Ii8+JiN4YTsJPHBhdGggY2xhc3M9InN0MSIgZD0iTTAgMTFWOWg0djJ6bTAgNHYtMmg0djJ6bTAtOFY1aDR2MnoiLz4mI3hhOwk8cGF0aCBjbGFzcz0ic3QyIiBkPSJNMyAzdjE0aDE0VjN6bTEyIDEySDVWNWgxMHoiLz4mI3hhOwk8cGF0aCBjbGFzcz0ic3QxIiBkPSJNMTAgMTBsLTMgM2g2eiIvPiYjeGE7CTxwYXRoIGNsYXNzPSJzdDAiIGQ9Ik0xMyA3bC0zIDMgMyAzeiIvPiYjeGE7PC9zdmc+;fontFamily=Verdana;noLabel=1;fillColor=#dae8fc;strokeColor=#6c8ebf;" vertex="1" parent="1">
          <mxGeometry x="267.03000000000003" y="524.5" width="35" height="35" as="geometry" />
        </mxCell>
        <mxCell id="IVblQwggJsGfgOUuLyKI-14" value="&lt;font style=&quot;font-size: 6px;&quot; face=&quot;Comic Sans MS&quot;&gt;Compute&lt;br&gt;Engine&lt;/font&gt;" style="sketch=0;html=1;verticalAlign=top;labelPosition=center;verticalLabelPosition=bottom;align=center;spacingTop=-6;fontSize=4;fontStyle=0;shape=image;aspect=fixed;imageAspect=0;image=data:image/svg+xml,PHN2ZyB4bWxucz0iaHR0cDovL3d3dy53My5vcmcvMjAwMC9zdmciIHhtbG5zOnY9Imh0dHBzOi8vdmVjdGEuaW8vbmFubyIgd2lkdGg9IjIwIiBoZWlnaHQ9IjIwIiB2aWV3Qm94PSIwIDAgMjAgMjAiPiYjeGE7CTxzdHlsZSB0eXBlPSJ0ZXh0L2NzcyI+JiN4YTsJLnN0MHtmaWxsOiM0Mjg1ZjQ7fSYjeGE7CS5zdDF7ZmlsbDojNjY5ZGY2O30mI3hhOwkuc3Qye2ZpbGw6I2FlY2JmYTt9JiN4YTsJPC9zdHlsZT4mI3hhOwk8cGF0aCBjbGFzcz0ic3QyIiBkPSJNNyA3aDZ2Nkg3eiIvPiYjeGE7CTxwYXRoIGNsYXNzPSJzdDEiIGQ9Ik05IDBoMnY0SDl6TTUgMGgydjRINXptOCAwaDJ2NGgtMnoiLz4mI3hhOwk8cGF0aCBjbGFzcz0ic3QwIiBkPSJNOSAxNmgydjRIOXptLTQgMGgydjRINXptOCAwaDJ2NGgtMnptMy01VjloNHYyem0wIDR2LTJoNHYyem0wLThWNWg0djJ6Ii8+JiN4YTsJPHBhdGggY2xhc3M9InN0MSIgZD0iTTAgMTFWOWg0djJ6bTAgNHYtMmg0djJ6bTAtOFY1aDR2MnoiLz4mI3hhOwk8cGF0aCBjbGFzcz0ic3QyIiBkPSJNMyAzdjE0aDE0VjN6bTEyIDEySDVWNWgxMHoiLz4mI3hhOwk8cGF0aCBjbGFzcz0ic3QxIiBkPSJNMTAgMTBsLTMgM2g2eiIvPiYjeGE7CTxwYXRoIGNsYXNzPSJzdDAiIGQ9Ik0xMyA3bC0zIDMgMyAzeiIvPiYjeGE7PC9zdmc+;fontFamily=Verdana;fillColor=#dae8fc;strokeColor=#6c8ebf;fontColor=default;" vertex="1" parent="1">
          <mxGeometry x="267.03000000000003" y="572" width="35" height="35" as="geometry" />
        </mxCell>
        <mxCell id="IVblQwggJsGfgOUuLyKI-17" value="Cloud&#xa;Functions" style="sketch=0;html=1;verticalAlign=top;labelPosition=center;verticalLabelPosition=bottom;align=center;spacingTop=-6;fontSize=11;fontStyle=1;shape=image;aspect=fixed;imageAspect=0;image=data:image/svg+xml,PHN2ZyB4bWxucz0iaHR0cDovL3d3dy53My5vcmcvMjAwMC9zdmciIHhtbG5zOnY9Imh0dHBzOi8vdmVjdGEuaW8vbmFubyIgd2lkdGg9IjIwIiBoZWlnaHQ9IjE5Ljk4OTk5OTc3MTExODE2NCIgdmlld0JveD0iMCAwIDIwIDE5Ljk4OTk5OTc3MTExODE2NCI+JiN4YTsJPHN0eWxlIHR5cGU9InRleHQvY3NzIj4mI3hhOwkuc3Qwe2ZpbGw6IzQyODVmNDt9JiN4YTsJLnN0MXtmaWxsOiM2NjlkZjY7fSYjeGE7CS5zdDJ7ZmlsbDojYWVjYmZhO30mI3hhOwk8L3N0eWxlPiYjeGE7CTxwYXRoIGNsYXNzPSJzdDEiIGQ9Ik0zIDMuOTlMMCA2LjQydjcuMTNsMyAyLjQ0eiIvPiYjeGE7CTxwYXRoIGNsYXNzPSJzdDAiIGQ9Ik0zIDMuOTlsLTMgNCAzLTJ6bS0zIDhsMyA0di0yeiIvPiYjeGE7CTxwYXRoIGNsYXNzPSJzdDIiIGQ9Ik0wIDE1Ljk5bDQgNCAyLTItNi02em0uMDEtOEw1Ljk5IDJsLTItMkwwIDMuOTl6Ii8+JiN4YTsJPHBhdGggY2xhc3M9InN0MSIgZD0iTTE3IDE2bDMtMi40MlY2LjQ0TDE3IDR6Ii8+JiN4YTsJPHBhdGggY2xhc3M9InN0MCIgZD0iTTE3IDE2bDMtNC0zIDJ6bTMtOGwtMy00djJ6Ii8+JiN4YTsJPGcgY2xhc3M9InN0MiI+JiN4YTsJCTxwYXRoIGQ9Ik0yMCA0bC00LTQtMiAyIDYgNnptLS4wMSA4bC01Ljk4IDUuOTkgMiAyTDIwIDE2eiIvPiYjeGE7CQk8Y2lyY2xlIGN4PSI2IiBjeT0iOS45OSIgcj0iMSIvPiYjeGE7CQk8Y2lyY2xlIGN4PSIxMCIgY3k9IjkuOTkiIHI9IjEiLz4mI3hhOwkJPGNpcmNsZSBjeD0iMTMuOTkiIGN5PSI5Ljk5IiByPSIxIi8+JiN4YTsJPC9nPiYjeGE7PC9zdmc+;noLabel=1;fillColor=#dae8fc;strokeColor=#6c8ebf;" vertex="1" parent="1">
          <mxGeometry x="769.66" y="615" width="46.93" height="38" as="geometry" />
        </mxCell>
        <mxCell id="IVblQwggJsGfgOUuLyKI-18" value="Google Kubernetes&#xa;Engine" style="sketch=0;html=1;verticalAlign=top;labelPosition=center;verticalLabelPosition=bottom;align=center;spacingTop=-6;fontSize=11;fontStyle=1;shape=image;aspect=fixed;imageAspect=0;image=data:image/svg+xml,PHN2ZyB4bWxucz0iaHR0cDovL3d3dy53My5vcmcvMjAwMC9zdmciIHhtbG5zOnY9Imh0dHBzOi8vdmVjdGEuaW8vbmFubyIgd2lkdGg9IjMyOS45MjU5OTcyMzE3OTM4IiBoZWlnaHQ9IjM3OC4yODQ5OTAzMTEyNzg4IiB2aWV3Qm94PSIwIDAgODcuMjkyOTk5MjY3NTc4MTIgMTAwLjA4Nzk5NzQzNjUyMzQ0Ij4mI3hhOzxzdHlsZSB0eXBlPSJ0ZXh0L2NzcyI+JiN4YTsJLnN0MHtmaWxsOiNhZWNiZmE7fSYjeGE7CS5zdDF7ZmlsbDojNjY5ZGY2O30mI3hhOwkuc3Qye2ZpbGw6IzQyODVmNDt9JiN4YTs8L3N0eWxlPiYjeGE7CTxwYXRoIGNsYXNzPSJzdDAiIGQ9Ik00My43NTEgMEwwIDI1LjQ2NXYyLjU4OCA0Ni45Mmw0My43NTIgMjUuMTE1IDQzLjU0MS0yNS4xMjFWMjUuNDczem0yLjQzOCAxMS44NTNsMzIuMTAzIDE4Ljc4MlY2OS43N0w0My43MzkgODkuNzA1IDkgNjkuNzYyVjMwLjY0MWwzMi4xOS0xOC43MzZ2MTQuMTU0TDI0LjUwMyAzNi4xNTNsMTkuMTcyIDExLjUwMiAxOC44ODYtMTEuNTU0LTE2LjM3Mi0xMC4wMjR6Ii8+JiN4YTsJPHBhdGggY2xhc3M9InN0MSIgZD0iTTIyLjAyNSA0MC40OTZsLjE2NiAxOS4xNDMtMTMuMjQ3IDcuMzN2Mi43NDJsMi42MzcgMS41MTQgMTIuNjQ4LTYuOTk5IDE2Ljk2MSAxMC42MDJWNTEuOTkzeiIvPiYjeGE7CTxwYXRoIGNsYXNzPSJzdDIiIGQ9Ik02NS4zNDQgNDAuMjZMNDYuMTg5IDUxLjk3OXYyMi44NDdsMTYuODk5LTEwLjU3NiAxMi41MzkgNi45NzQgMi42MDktMS41MDV2LTIuNzY1bC0xMi43ODQtNy4xMTJ6Ii8+JiN4YTs8L3N2Zz4=;noLabel=1;fillColor=#dae8fc;strokeColor=#6c8ebf;" vertex="1" parent="1">
          <mxGeometry x="434.34999999999997" y="521.25" width="35.24" height="40" as="geometry" />
        </mxCell>
        <mxCell id="IVblQwggJsGfgOUuLyKI-19" value="&lt;font style=&quot;font-size: 7px; font-weight: normal;&quot; face=&quot;Comic Sans MS&quot;&gt;GKE&lt;/font&gt;" style="sketch=0;html=1;verticalAlign=top;labelPosition=center;verticalLabelPosition=bottom;align=center;spacingTop=-6;fontSize=11;fontStyle=1;shape=image;aspect=fixed;imageAspect=0;image=data:image/svg+xml,PHN2ZyB4bWxucz0iaHR0cDovL3d3dy53My5vcmcvMjAwMC9zdmciIHhtbG5zOnY9Imh0dHBzOi8vdmVjdGEuaW8vbmFubyIgd2lkdGg9IjMyOS45MjU5OTcyMzE3OTM4IiBoZWlnaHQ9IjM3OC4yODQ5OTAzMTEyNzg4IiB2aWV3Qm94PSIwIDAgODcuMjkyOTk5MjY3NTc4MTIgMTAwLjA4Nzk5NzQzNjUyMzQ0Ij4mI3hhOzxzdHlsZSB0eXBlPSJ0ZXh0L2NzcyI+JiN4YTsJLnN0MHtmaWxsOiNhZWNiZmE7fSYjeGE7CS5zdDF7ZmlsbDojNjY5ZGY2O30mI3hhOwkuc3Qye2ZpbGw6IzQyODVmNDt9JiN4YTs8L3N0eWxlPiYjeGE7CTxwYXRoIGNsYXNzPSJzdDAiIGQ9Ik00My43NTEgMEwwIDI1LjQ2NXYyLjU4OCA0Ni45Mmw0My43NTIgMjUuMTE1IDQzLjU0MS0yNS4xMjFWMjUuNDczem0yLjQzOCAxMS44NTNsMzIuMTAzIDE4Ljc4MlY2OS43N0w0My43MzkgODkuNzA1IDkgNjkuNzYyVjMwLjY0MWwzMi4xOS0xOC43MzZ2MTQuMTU0TDI0LjUwMyAzNi4xNTNsMTkuMTcyIDExLjUwMiAxOC44ODYtMTEuNTU0LTE2LjM3Mi0xMC4wMjR6Ii8+JiN4YTsJPHBhdGggY2xhc3M9InN0MSIgZD0iTTIyLjAyNSA0MC40OTZsLjE2NiAxOS4xNDMtMTMuMjQ3IDcuMzN2Mi43NDJsMi42MzcgMS41MTQgMTIuNjQ4LTYuOTk5IDE2Ljk2MSAxMC42MDJWNTEuOTkzeiIvPiYjeGE7CTxwYXRoIGNsYXNzPSJzdDIiIGQ9Ik02NS4zNDQgNDAuMjZMNDYuMTg5IDUxLjk3OXYyMi44NDdsMTYuODk5LTEwLjU3NiAxMi41MzkgNi45NzQgMi42MDktMS41MDV2LTIuNzY1bC0xMi43ODQtNy4xMTJ6Ii8+JiN4YTs8L3N2Zz4=;fillColor=#dae8fc;strokeColor=#6c8ebf;fontColor=default;" vertex="1" parent="1">
          <mxGeometry x="434.72999999999996" y="561.25" width="35.24" height="40" as="geometry" />
        </mxCell>
        <mxCell id="IVblQwggJsGfgOUuLyKI-21" value="" style="editableCssRules=.*;html=1;shape=image;verticalLabelPosition=bottom;labelBackgroundColor=none;verticalAlign=top;aspect=fixed;imageAspect=0;image=data:image/svg+xml,PHN2ZyB4bWxucz0iaHR0cDovL3d3dy53My5vcmcvMjAwMC9zdmciIHhtbG5zOnY9Imh0dHBzOi8vdmVjdGEuaW8vbmFubyIgd2lkdGg9IjE0LjY1OTk5OTg0NzQxMjExIiBoZWlnaHQ9IjIwIiB2aWV3Qm94PSIwIDAgMTQuNjU5OTk5ODQ3NDEyMTEgMjAiPiYjeGE7CTxzdHlsZSB0eXBlPSJ0ZXh0L2NzcyI+JiN4YTsJLnN0MHtmaWxsOiM0Mjg1ZjQ7fSYjeGE7CS5zdDF7ZmlsbDojNjY5ZGY2O30mI3hhOwkuc3Qye2ZpbGw6I2FlY2JmYTt9JiN4YTsJPC9zdHlsZT4mI3hhOwk8c3R5bGU+JiN4YTsJCS5Ee2ZpbGwtcnVsZTpldmVub2RkfSYjeGE7CTwvc3R5bGU+JiN4YTsJPHBhdGggZD0iTTcuMzMgMTUuMzV2LTMuMDFMMCA4LjQ0djMuMDF6bTAgNC42NXYtMy4wMUwwIDEzLjA5djMuMDF6IiBjbGFzcz0ic3QyIEQiLz4mI3hhOwk8cGF0aCBkPSJNMTQuNjYgOC40NGwtNy4zMyAzLjl2My4wMWw3LjMzLTMuOXptMCA0LjY1bC03LjMzIDMuOVYyMGw3LjMzLTMuOXoiIGNsYXNzPSJzdDEgRCIvPiYjeGE7CTxwYXRoIGQ9Ik03LjMzIDB2My4wMWw3LjMzIDMuOVYzLjl6IiBjbGFzcz0ic3QwIEQiLz4mI3hhOwk8cGF0aCBkPSJNMCA2LjkxbDcuMzMtMy45VjBMMCAzLjl6IiBjbGFzcz0iRCBzdDEiLz4mI3hhOwk8cGF0aCBkPSJNNy4zMyAxMC43OVY3Ljc3TDAgMy44N3YzLjAyeiIgY2xhc3M9IkQgc3QyIi8+JiN4YTsJPHBhdGggZD0iTTE0LjY2IDMuODdsLTcuMzMgMy45djMuMDJsNy4zMy0zLjl6IiBjbGFzcz0iRCBzdDEiLz4mI3hhOzwvc3ZnPg==;fillColor=#dae8fc;strokeColor=#6c8ebf;imageBackground=none;" vertex="1" parent="1">
          <mxGeometry x="504.65999999999997" y="520.7499999999999" width="26.25" height="35" as="geometry" />
        </mxCell>
        <mxCell id="IVblQwggJsGfgOUuLyKI-124" style="edgeStyle=orthogonalEdgeStyle;rounded=0;orthogonalLoop=1;jettySize=auto;html=1;endArrow=none;endFill=0;" edge="1" parent="1" source="IVblQwggJsGfgOUuLyKI-23">
          <mxGeometry relative="1" as="geometry">
            <mxPoint x="160" y="500" as="targetPoint" />
          </mxGeometry>
        </mxCell>
        <mxCell id="IVblQwggJsGfgOUuLyKI-23" value="&lt;font style=&quot;font-size: 5px;&quot;&gt;Cloud Functions&lt;/font&gt;" style="sketch=0;html=1;verticalAlign=top;labelPosition=center;verticalLabelPosition=bottom;align=center;spacingTop=-6;fontSize=11;fontStyle=1;shape=image;aspect=fixed;imageAspect=0;image=data:image/svg+xml,PHN2ZyB4bWxucz0iaHR0cDovL3d3dy53My5vcmcvMjAwMC9zdmciIHhtbG5zOnY9Imh0dHBzOi8vdmVjdGEuaW8vbmFubyIgd2lkdGg9IjIwIiBoZWlnaHQ9IjE5Ljk4OTk5OTc3MTExODE2NCIgdmlld0JveD0iMCAwIDIwIDE5Ljk4OTk5OTc3MTExODE2NCI+JiN4YTsJPHN0eWxlIHR5cGU9InRleHQvY3NzIj4mI3hhOwkuc3Qwe2ZpbGw6IzQyODVmNDt9JiN4YTsJLnN0MXtmaWxsOiM2NjlkZjY7fSYjeGE7CS5zdDJ7ZmlsbDojYWVjYmZhO30mI3hhOwk8L3N0eWxlPiYjeGE7CTxwYXRoIGNsYXNzPSJzdDEiIGQ9Ik0zIDMuOTlMMCA2LjQydjcuMTNsMyAyLjQ0eiIvPiYjeGE7CTxwYXRoIGNsYXNzPSJzdDAiIGQ9Ik0zIDMuOTlsLTMgNCAzLTJ6bS0zIDhsMyA0di0yeiIvPiYjeGE7CTxwYXRoIGNsYXNzPSJzdDIiIGQ9Ik0wIDE1Ljk5bDQgNCAyLTItNi02em0uMDEtOEw1Ljk5IDJsLTItMkwwIDMuOTl6Ii8+JiN4YTsJPHBhdGggY2xhc3M9InN0MSIgZD0iTTE3IDE2bDMtMi40MlY2LjQ0TDE3IDR6Ii8+JiN4YTsJPHBhdGggY2xhc3M9InN0MCIgZD0iTTE3IDE2bDMtNC0zIDJ6bTMtOGwtMy00djJ6Ii8+JiN4YTsJPGcgY2xhc3M9InN0MiI+JiN4YTsJCTxwYXRoIGQ9Ik0yMCA0bC00LTQtMiAyIDYgNnptLS4wMSA4bC01Ljk4IDUuOTkgMiAyTDIwIDE2eiIvPiYjeGE7CQk8Y2lyY2xlIGN4PSI2IiBjeT0iOS45OSIgcj0iMSIvPiYjeGE7CQk8Y2lyY2xlIGN4PSIxMCIgY3k9IjkuOTkiIHI9IjEiLz4mI3hhOwkJPGNpcmNsZSBjeD0iMTMuOTkiIGN5PSI5Ljk5IiByPSIxIi8+JiN4YTsJPC9nPiYjeGE7PC9zdmc+;fillColor=#dae8fc;strokeColor=#6c8ebf;fontColor=default;fontFamily=Comic Sans MS;" vertex="1" parent="1">
          <mxGeometry x="70.9" y="619.75" width="37.05" height="30" as="geometry" />
        </mxCell>
        <mxCell id="IVblQwggJsGfgOUuLyKI-26" value="" style="shape=image;verticalLabelPosition=bottom;labelBackgroundColor=default;verticalAlign=top;aspect=fixed;imageAspect=0;image=https://dt-cdn.net/hub/logos/activegate.png;fillColor=#dae8fc;strokeColor=#6c8ebf;" vertex="1" parent="1">
          <mxGeometry x="858.5" y="596.22" width="46" height="46" as="geometry" />
        </mxCell>
        <mxCell id="IVblQwggJsGfgOUuLyKI-27" value="" style="shape=image;verticalLabelPosition=bottom;labelBackgroundColor=default;verticalAlign=top;aspect=fixed;imageAspect=0;image=https://dt-cdn.net/hub/logos/activegate.png;fillColor=#dae8fc;strokeColor=#6c8ebf;" vertex="1" parent="1">
          <mxGeometry x="858.5" y="642.22" width="46" height="46" as="geometry" />
        </mxCell>
        <mxCell id="IVblQwggJsGfgOUuLyKI-37" value="" style="shape=image;verticalLabelPosition=bottom;labelBackgroundColor=default;verticalAlign=top;aspect=fixed;imageAspect=0;image=https://dt-cdn.net/hub/logos/oneagent.png;" vertex="1" parent="1">
          <mxGeometry x="271.78000000000003" y="586.5" width="25.5" height="25.5" as="geometry" />
        </mxCell>
        <mxCell id="IVblQwggJsGfgOUuLyKI-38" value="" style="shape=image;verticalLabelPosition=bottom;labelBackgroundColor=default;verticalAlign=top;aspect=fixed;imageAspect=0;image=https://dt-cdn.net/hub/logos/oneagent.png;" vertex="1" parent="1">
          <mxGeometry x="279.28000000000003" y="529.25" width="25.5" height="25.5" as="geometry" />
        </mxCell>
        <mxCell id="IVblQwggJsGfgOUuLyKI-40" value="" style="edgeStyle=none;orthogonalLoop=1;jettySize=auto;html=1;rounded=0;endArrow=none;endFill=0;" edge="1" parent="1">
          <mxGeometry width="100" relative="1" as="geometry">
            <mxPoint x="477.3499999999999" y="604" as="sourcePoint" />
            <mxPoint x="477.3499999999999" y="604" as="targetPoint" />
            <Array as="points" />
          </mxGeometry>
        </mxCell>
        <mxCell id="IVblQwggJsGfgOUuLyKI-42" value="&lt;font style=&quot;font-size: 7px;&quot;&gt;BigQuery&lt;/font&gt;" style="text;html=1;align=center;verticalAlign=middle;resizable=0;points=[];autosize=1;strokeColor=none;fillColor=none;fontFamily=Comic Sans MS;" vertex="1" parent="1">
          <mxGeometry x="65.62" y="544.75" width="50" height="30" as="geometry" />
        </mxCell>
        <mxCell id="IVblQwggJsGfgOUuLyKI-46" value="" style="shape=image;verticalLabelPosition=bottom;labelBackgroundColor=default;verticalAlign=top;aspect=fixed;imageAspect=0;image=https://seeklogo.com/images/S/servicenow-agent-logo-F71A6DAFCE-seeklogo.com.png;" vertex="1" parent="1">
          <mxGeometry x="1670" y="680.07" width="40" height="40" as="geometry" />
        </mxCell>
        <mxCell id="IVblQwggJsGfgOUuLyKI-48" value="" style="shape=image;verticalLabelPosition=bottom;labelBackgroundColor=default;verticalAlign=top;aspect=fixed;imageAspect=0;image=https://miro.medium.com/v2/resize:fit:1196/1*bFbdGnKYSP_dmRS_Yr0sog.png;" vertex="1" parent="1">
          <mxGeometry x="1590" y="562.07" width="97.52" height="37.35" as="geometry" />
        </mxCell>
        <mxCell id="IVblQwggJsGfgOUuLyKI-49" value="" style="shape=image;verticalLabelPosition=bottom;labelBackgroundColor=default;verticalAlign=top;aspect=fixed;imageAspect=0;image=https://dt-cdn.net/hub/logos/logs-and-events.png;" vertex="1" parent="1">
          <mxGeometry x="1557.1799999999998" y="565.49" width="31.17" height="31.17" as="geometry" />
        </mxCell>
        <mxCell id="IVblQwggJsGfgOUuLyKI-50" style="edgeStyle=orthogonalEdgeStyle;rounded=0;orthogonalLoop=1;jettySize=auto;html=1;exitX=1;exitY=0.5;exitDx=0;exitDy=0;entryX=0;entryY=0.5;entryDx=0;entryDy=0;" edge="1" parent="1" source="IVblQwggJsGfgOUuLyKI-3" target="IVblQwggJsGfgOUuLyKI-46">
          <mxGeometry relative="1" as="geometry" />
        </mxCell>
        <mxCell id="IVblQwggJsGfgOUuLyKI-51" value="&lt;font style=&quot;font-size: 9px;&quot;&gt;Problem Integration&lt;/font&gt;" style="edgeLabel;html=1;align=center;verticalAlign=middle;resizable=0;points=[];fontFamily=Comic Sans MS;" vertex="1" connectable="0" parent="IVblQwggJsGfgOUuLyKI-50">
          <mxGeometry x="0.0687" y="2" relative="1" as="geometry">
            <mxPoint x="-10" y="-10" as="offset" />
          </mxGeometry>
        </mxCell>
        <mxCell id="IVblQwggJsGfgOUuLyKI-52" value="443" style="edgeLabel;html=1;align=center;verticalAlign=middle;resizable=0;points=[];fontSize=8;fontFamily=Comic Sans MS;" vertex="1" connectable="0" parent="IVblQwggJsGfgOUuLyKI-50">
          <mxGeometry x="0.5331" y="1" relative="1" as="geometry">
            <mxPoint as="offset" />
          </mxGeometry>
        </mxCell>
        <mxCell id="IVblQwggJsGfgOUuLyKI-53" value="&lt;span style=&quot;font-family: &amp;quot;Comic Sans MS&amp;quot;; font-size: 6px;&quot;&gt;Cloud SQL&lt;/span&gt;" style="text;html=1;align=center;verticalAlign=middle;resizable=0;points=[];autosize=1;strokeColor=none;fillColor=none;" vertex="1" parent="1">
          <mxGeometry x="493.65999999999997" y="540" width="50" height="30" as="geometry" />
        </mxCell>
        <mxCell id="IVblQwggJsGfgOUuLyKI-54" value="&lt;font style=&quot;font-size: 8px;&quot;&gt;Internal GCP Projects&lt;/font&gt;" style="text;html=1;align=center;verticalAlign=middle;resizable=0;points=[];autosize=1;strokeColor=none;fillColor=none;fontFamily=Comic Sans MS;" vertex="1" parent="1">
          <mxGeometry x="43.29999999999999" y="700" width="110" height="30" as="geometry" />
        </mxCell>
        <mxCell id="IVblQwggJsGfgOUuLyKI-63" value="&lt;font style=&quot;font-size: 6px;&quot;&gt;ActiveGates&lt;/font&gt;" style="text;html=1;align=center;verticalAlign=middle;resizable=0;points=[];autosize=1;strokeColor=none;fillColor=none;" vertex="1" parent="1">
          <mxGeometry x="813.62" y="566.6600000000002" width="60" height="30" as="geometry" />
        </mxCell>
        <mxCell id="IVblQwggJsGfgOUuLyKI-69" value="" style="rounded=1;whiteSpace=wrap;html=1;fillColor=none;strokeColor=#A9C4EB;" vertex="1" parent="1">
          <mxGeometry x="921.5" y="591.72" width="60" height="100" as="geometry" />
        </mxCell>
        <mxCell id="IVblQwggJsGfgOUuLyKI-70" value="" style="shape=image;verticalLabelPosition=bottom;labelBackgroundColor=default;verticalAlign=top;aspect=fixed;imageAspect=0;image=https://dt-cdn.net/hub/logos/activegate.png;fillColor=#dae8fc;strokeColor=#6c8ebf;" vertex="1" parent="1">
          <mxGeometry x="928.5" y="596.22" width="46" height="46" as="geometry" />
        </mxCell>
        <mxCell id="IVblQwggJsGfgOUuLyKI-71" value="" style="shape=image;verticalLabelPosition=bottom;labelBackgroundColor=default;verticalAlign=top;aspect=fixed;imageAspect=0;image=https://dt-cdn.net/hub/logos/activegate.png;fillColor=#dae8fc;strokeColor=#6c8ebf;" vertex="1" parent="1">
          <mxGeometry x="928.5" y="642.22" width="46" height="46" as="geometry" />
        </mxCell>
        <mxCell id="IVblQwggJsGfgOUuLyKI-76" value="&lt;font style=&quot;font-size: 9px;&quot;&gt;Project A&lt;/font&gt;" style="text;html=1;align=center;verticalAlign=middle;resizable=0;points=[];autosize=1;strokeColor=none;fillColor=none;" vertex="1" parent="1">
          <mxGeometry x="59.419999999999995" y="666.5" width="60" height="30" as="geometry" />
        </mxCell>
        <mxCell id="IVblQwggJsGfgOUuLyKI-77" value="&lt;font style=&quot;font-size: 9px;&quot;&gt;Project B&lt;/font&gt;" style="text;html=1;align=center;verticalAlign=middle;resizable=0;points=[];autosize=1;strokeColor=none;fillColor=none;" vertex="1" parent="1">
          <mxGeometry x="253.68" y="654.75" width="60" height="30" as="geometry" />
        </mxCell>
        <mxCell id="IVblQwggJsGfgOUuLyKI-78" value="&lt;font style=&quot;font-size: 9px;&quot;&gt;Project C&lt;/font&gt;" style="text;html=1;align=center;verticalAlign=middle;resizable=0;points=[];autosize=1;strokeColor=none;fillColor=none;" vertex="1" parent="1">
          <mxGeometry x="457.72999999999996" y="630" width="60" height="30" as="geometry" />
        </mxCell>
        <mxCell id="IVblQwggJsGfgOUuLyKI-82" value="" style="rounded=1;whiteSpace=wrap;html=1;fillColor=#dae8fc;fontFamily=Comic Sans MS;fontSize=8;strokeColor=#6c8ebf;" vertex="1" parent="1">
          <mxGeometry x="59.420000000000016" y="350" width="117.88" height="110" as="geometry" />
        </mxCell>
        <mxCell id="IVblQwggJsGfgOUuLyKI-83" value="" style="rounded=1;whiteSpace=wrap;html=1;fillColor=#ffe6cc;fontFamily=Comic Sans MS;fontSize=8;strokeColor=#d79b00;" vertex="1" parent="1">
          <mxGeometry x="73.05000000000001" y="365" width="90.63" height="85" as="geometry" />
        </mxCell>
        <mxCell id="IVblQwggJsGfgOUuLyKI-85" value="Shared VPC Network" style="text;html=1;align=center;verticalAlign=middle;resizable=0;points=[];autosize=1;strokeColor=none;fillColor=none;fontFamily=Comic Sans MS;fontSize=8;" vertex="1" parent="1">
          <mxGeometry x="41.36000000000001" y="325" width="100" height="20" as="geometry" />
        </mxCell>
        <mxCell id="IVblQwggJsGfgOUuLyKI-86" value="" style="editableCssRules=.*;html=1;shape=image;verticalLabelPosition=bottom;labelBackgroundColor=#ffffff;verticalAlign=top;aspect=fixed;imageAspect=0;image=data:image/svg+xml,PHN2ZyB4bWxucz0iaHR0cDovL3d3dy53My5vcmcvMjAwMC9zdmciIHhtbG5zOnY9Imh0dHBzOi8vdmVjdGEuaW8vbmFubyIgd2lkdGg9IjIwIiBoZWlnaHQ9IjIwIiB2aWV3Qm94PSIwIDAgMjAgMjAiPiYjeGE7CTxzdHlsZSB0eXBlPSJ0ZXh0L2NzcyI+JiN4YTsJLnN0MHtmaWxsOiM0Mjg1ZjQ7fSYjeGE7CS5zdDF7ZmlsbDojNjY5ZGY2O30mI3hhOwkuc3Qye2ZpbGw6I2FlY2JmYTt9JiN4YTsJPC9zdHlsZT4mI3hhOwk8cGF0aCBjbGFzcz0ic3QyIiBkPSJNMTQgMGg2djZoLTZ6Ii8+JiN4YTsJPHBhdGggY2xhc3M9InN0MSIgZD0iTTE3IDBoM3Y2aC0zeiIvPiYjeGE7CTxwYXRoIGNsYXNzPSJzdDIiIGQ9Ik0xNCAxNGg2djZoLTZ6Ii8+JiN4YTsJPHBhdGggY2xhc3M9InN0MSIgZD0iTTE3IDE0aDN2NmgtM3oiLz4mI3hhOwk8cGF0aCBjbGFzcz0ic3QyIiBkPSJNMCAwaDZ2NkgweiIvPiYjeGE7CTxwYXRoIGNsYXNzPSJzdDEiIGQ9Ik0zIDBoM3Y2SDN6Ii8+JiN4YTsJPHBhdGggY2xhc3M9InN0MiIgZD0iTTAgMTRoNnY2SDB6Ii8+JiN4YTsJPGcgY2xhc3M9InN0MSI+JiN4YTsJCTxwYXRoIGQ9Ik0zIDE0aDN2Nkgzek02IDJoOHYySDZ6Ii8+JiN4YTsJCTxwYXRoIGQ9Ik02IDE2aDh2Mkg2ek0xNiA2aDJ2OGgtMnpNMiA2aDJ2OEgyeiIvPiYjeGE7CTwvZz4mI3hhOwk8cGF0aCBjbGFzcz0ic3QwIiBkPSJNMiA2aDJ2Mkgyem0xNCAwaDJ2MmgtMnpNNiAyaDJ2Mkg2em0wIDE0aDJ2Mkg2eiIvPiYjeGE7PC9zdmc+;fontFamily=Comic Sans MS;fontSize=8;" vertex="1" parent="1">
          <mxGeometry x="28.300000000000004" y="330" width="20" height="20" as="geometry" />
        </mxCell>
        <mxCell id="IVblQwggJsGfgOUuLyKI-87" value="&lt;font style=&quot;font-size: 8px;&quot;&gt;region&lt;/font&gt;" style="text;html=1;align=center;verticalAlign=middle;resizable=0;points=[];autosize=1;strokeColor=none;fillColor=none;fontFamily=Comic Sans MS;fontSize=8;" vertex="1" parent="1">
          <mxGeometry x="55.80000000000001" y="345" width="50" height="20" as="geometry" />
        </mxCell>
        <mxCell id="IVblQwggJsGfgOUuLyKI-89" value="&lt;font style=&quot;font-size: 8px;&quot;&gt;Subnet&lt;/font&gt;" style="text;html=1;align=center;verticalAlign=middle;resizable=0;points=[];autosize=1;strokeColor=none;fillColor=none;fontFamily=Comic Sans MS;fontSize=8;" vertex="1" parent="1">
          <mxGeometry x="73.30000000000001" y="365" width="50" height="20" as="geometry" />
        </mxCell>
        <mxCell id="IVblQwggJsGfgOUuLyKI-91" value="&lt;font style=&quot;font-size: 8px;&quot;&gt;Internal IP Addresses for GCP Projects&lt;/font&gt;" style="whiteSpace=wrap;html=1;fontFamily=Comic Sans MS;fontSize=8;" vertex="1" parent="1">
          <mxGeometry x="84.15" y="400" width="69.53" height="40" as="geometry" />
        </mxCell>
        <mxCell id="IVblQwggJsGfgOUuLyKI-97" value="" style="rounded=1;whiteSpace=wrap;html=1;fillColor=none;dashed=1;" vertex="1" parent="1">
          <mxGeometry x="66.09" y="516.5" width="49.53" height="100" as="geometry" />
        </mxCell>
        <mxCell id="IVblQwggJsGfgOUuLyKI-99" value="" style="rounded=1;whiteSpace=wrap;html=1;fillColor=#dae8fc;fontFamily=Comic Sans MS;fontSize=8;strokeColor=#6c8ebf;" vertex="1" parent="1">
          <mxGeometry x="189.8" y="350" width="117.88" height="110" as="geometry" />
        </mxCell>
        <mxCell id="IVblQwggJsGfgOUuLyKI-100" value="" style="rounded=1;whiteSpace=wrap;html=1;fillColor=#ffe6cc;fontFamily=Comic Sans MS;fontSize=8;strokeColor=#d79b00;" vertex="1" parent="1">
          <mxGeometry x="203.43" y="365" width="90.63" height="85" as="geometry" />
        </mxCell>
        <mxCell id="IVblQwggJsGfgOUuLyKI-101" value="&lt;font style=&quot;font-size: 8px;&quot;&gt;region&lt;/font&gt;" style="text;html=1;align=center;verticalAlign=middle;resizable=0;points=[];autosize=1;strokeColor=none;fillColor=none;fontFamily=Comic Sans MS;fontSize=8;" vertex="1" parent="1">
          <mxGeometry x="186.18" y="345" width="50" height="20" as="geometry" />
        </mxCell>
        <mxCell id="IVblQwggJsGfgOUuLyKI-102" value="&lt;font style=&quot;font-size: 8px;&quot;&gt;Subnet&lt;/font&gt;" style="text;html=1;align=center;verticalAlign=middle;resizable=0;points=[];autosize=1;strokeColor=none;fillColor=none;fontFamily=Comic Sans MS;fontSize=8;" vertex="1" parent="1">
          <mxGeometry x="203.68" y="365" width="50" height="20" as="geometry" />
        </mxCell>
        <mxCell id="IVblQwggJsGfgOUuLyKI-103" value="&lt;font style=&quot;font-size: 8px;&quot;&gt;Internal IP Addresses for GCP Projects&lt;/font&gt;" style="whiteSpace=wrap;html=1;fontFamily=Comic Sans MS;fontSize=8;" vertex="1" parent="1">
          <mxGeometry x="214.53000000000003" y="400" width="69.53" height="40" as="geometry" />
        </mxCell>
        <mxCell id="IVblQwggJsGfgOUuLyKI-104" value="" style="rounded=1;whiteSpace=wrap;html=1;fillColor=#dae8fc;fontFamily=Comic Sans MS;fontSize=8;strokeColor=#6c8ebf;" vertex="1" parent="1">
          <mxGeometry x="318.81" y="350" width="117.88" height="110" as="geometry" />
        </mxCell>
        <mxCell id="IVblQwggJsGfgOUuLyKI-105" value="" style="rounded=1;whiteSpace=wrap;html=1;fillColor=#ffe6cc;fontFamily=Comic Sans MS;fontSize=8;strokeColor=#d79b00;" vertex="1" parent="1">
          <mxGeometry x="332.44" y="365" width="90.63" height="85" as="geometry" />
        </mxCell>
        <mxCell id="IVblQwggJsGfgOUuLyKI-106" value="&lt;font style=&quot;font-size: 8px;&quot;&gt;region&lt;/font&gt;" style="text;html=1;align=center;verticalAlign=middle;resizable=0;points=[];autosize=1;strokeColor=none;fillColor=none;fontFamily=Comic Sans MS;fontSize=8;" vertex="1" parent="1">
          <mxGeometry x="315.19" y="345" width="50" height="20" as="geometry" />
        </mxCell>
        <mxCell id="IVblQwggJsGfgOUuLyKI-107" value="&lt;font style=&quot;font-size: 8px;&quot;&gt;Subnet&lt;/font&gt;" style="text;html=1;align=center;verticalAlign=middle;resizable=0;points=[];autosize=1;strokeColor=none;fillColor=none;fontFamily=Comic Sans MS;fontSize=8;" vertex="1" parent="1">
          <mxGeometry x="332.69" y="365" width="50" height="20" as="geometry" />
        </mxCell>
        <mxCell id="IVblQwggJsGfgOUuLyKI-108" value="&lt;font style=&quot;font-size: 8px;&quot;&gt;Internal IP Addresses for GCP Projects&lt;/font&gt;" style="whiteSpace=wrap;html=1;fontFamily=Comic Sans MS;fontSize=8;" vertex="1" parent="1">
          <mxGeometry x="343.54" y="400" width="69.53" height="40" as="geometry" />
        </mxCell>
        <mxCell id="IVblQwggJsGfgOUuLyKI-109" value="" style="rounded=1;whiteSpace=wrap;html=1;fillColor=#dae8fc;fontFamily=Comic Sans MS;fontSize=8;strokeColor=#6c8ebf;" vertex="1" parent="1">
          <mxGeometry x="447.31" y="350" width="117.88" height="110" as="geometry" />
        </mxCell>
        <mxCell id="IVblQwggJsGfgOUuLyKI-110" value="" style="rounded=1;whiteSpace=wrap;html=1;fillColor=#ffe6cc;fontFamily=Comic Sans MS;fontSize=8;strokeColor=#d79b00;" vertex="1" parent="1">
          <mxGeometry x="460.94" y="365" width="90.63" height="85" as="geometry" />
        </mxCell>
        <mxCell id="IVblQwggJsGfgOUuLyKI-111" value="&lt;font style=&quot;font-size: 8px;&quot;&gt;region&lt;/font&gt;" style="text;html=1;align=center;verticalAlign=middle;resizable=0;points=[];autosize=1;strokeColor=none;fillColor=none;fontFamily=Comic Sans MS;fontSize=8;" vertex="1" parent="1">
          <mxGeometry x="443.69" y="345" width="50" height="20" as="geometry" />
        </mxCell>
        <mxCell id="IVblQwggJsGfgOUuLyKI-112" value="&lt;font style=&quot;font-size: 8px;&quot;&gt;Subnet&lt;/font&gt;" style="text;html=1;align=center;verticalAlign=middle;resizable=0;points=[];autosize=1;strokeColor=none;fillColor=none;fontFamily=Comic Sans MS;fontSize=8;" vertex="1" parent="1">
          <mxGeometry x="461.19" y="365" width="50" height="20" as="geometry" />
        </mxCell>
        <mxCell id="IVblQwggJsGfgOUuLyKI-113" value="&lt;font style=&quot;font-size: 8px;&quot;&gt;Internal IP Addresses for GCP Projects&lt;/font&gt;" style="whiteSpace=wrap;html=1;fontFamily=Comic Sans MS;fontSize=8;" vertex="1" parent="1">
          <mxGeometry x="472.04" y="400" width="69.53" height="40" as="geometry" />
        </mxCell>
        <mxCell id="IVblQwggJsGfgOUuLyKI-114" value="" style="rounded=1;whiteSpace=wrap;html=1;fillColor=#dae8fc;fontFamily=Comic Sans MS;fontSize=8;strokeColor=#6c8ebf;" vertex="1" parent="1">
          <mxGeometry x="733.6199999999999" y="350" width="117.88" height="110" as="geometry" />
        </mxCell>
        <mxCell id="IVblQwggJsGfgOUuLyKI-115" value="" style="rounded=1;whiteSpace=wrap;html=1;fillColor=#ffe6cc;fontFamily=Comic Sans MS;fontSize=8;strokeColor=#d79b00;" vertex="1" parent="1">
          <mxGeometry x="747.25" y="365" width="90.63" height="85" as="geometry" />
        </mxCell>
        <mxCell id="IVblQwggJsGfgOUuLyKI-116" value="&lt;font style=&quot;font-size: 8px;&quot;&gt;region&lt;/font&gt;" style="text;html=1;align=center;verticalAlign=middle;resizable=0;points=[];autosize=1;strokeColor=none;fillColor=none;fontFamily=Comic Sans MS;fontSize=8;" vertex="1" parent="1">
          <mxGeometry x="730" y="345" width="50" height="20" as="geometry" />
        </mxCell>
        <mxCell id="IVblQwggJsGfgOUuLyKI-117" value="&lt;font style=&quot;font-size: 8px;&quot;&gt;Subnet&lt;/font&gt;" style="text;html=1;align=center;verticalAlign=middle;resizable=0;points=[];autosize=1;strokeColor=none;fillColor=none;fontFamily=Comic Sans MS;fontSize=8;" vertex="1" parent="1">
          <mxGeometry x="747.5" y="365" width="50" height="20" as="geometry" />
        </mxCell>
        <mxCell id="IVblQwggJsGfgOUuLyKI-118" value="&lt;font style=&quot;font-size: 8px;&quot;&gt;Internal IP Addresses for Central Projects&lt;/font&gt;" style="whiteSpace=wrap;html=1;fontFamily=Comic Sans MS;fontSize=8;" vertex="1" parent="1">
          <mxGeometry x="758.35" y="400" width="69.53" height="40" as="geometry" />
        </mxCell>
        <mxCell id="IVblQwggJsGfgOUuLyKI-122" style="rounded=0;orthogonalLoop=1;jettySize=auto;html=1;entryX=0.11;entryY=1.007;entryDx=0;entryDy=0;entryPerimeter=0;endArrow=oval;endFill=1;" edge="1" parent="1" source="IVblQwggJsGfgOUuLyKI-97" target="IVblQwggJsGfgOUuLyKI-91">
          <mxGeometry relative="1" as="geometry" />
        </mxCell>
        <mxCell id="IVblQwggJsGfgOUuLyKI-126" value="" style="edgeStyle=none;orthogonalLoop=1;jettySize=auto;html=1;rounded=0;endArrow=none;endFill=0;" edge="1" parent="1">
          <mxGeometry width="100" relative="1" as="geometry">
            <mxPoint x="160" y="500" as="sourcePoint" />
            <mxPoint x="250" y="500" as="targetPoint" />
            <Array as="points" />
          </mxGeometry>
        </mxCell>
        <mxCell id="IVblQwggJsGfgOUuLyKI-127" value="" style="edgeStyle=none;orthogonalLoop=1;jettySize=auto;html=1;rounded=0;entryX=0.5;entryY=1;entryDx=0;entryDy=0;endArrow=oval;endFill=1;" edge="1" parent="1" target="IVblQwggJsGfgOUuLyKI-103">
          <mxGeometry width="100" relative="1" as="geometry">
            <mxPoint x="250" y="500" as="sourcePoint" />
            <mxPoint x="350" y="500" as="targetPoint" />
            <Array as="points" />
          </mxGeometry>
        </mxCell>
        <mxCell id="IVblQwggJsGfgOUuLyKI-128" value="" style="rounded=1;whiteSpace=wrap;html=1;fillColor=none;dashed=1;" vertex="1" parent="1">
          <mxGeometry x="259.53000000000003" y="516.5" width="51.32" height="120" as="geometry" />
        </mxCell>
        <mxCell id="IVblQwggJsGfgOUuLyKI-129" style="edgeStyle=orthogonalEdgeStyle;rounded=0;orthogonalLoop=1;jettySize=auto;html=1;endArrow=oval;endFill=1;" edge="1" parent="1" source="IVblQwggJsGfgOUuLyKI-128">
          <mxGeometry relative="1" as="geometry">
            <mxPoint x="380" y="440" as="targetPoint" />
          </mxGeometry>
        </mxCell>
        <mxCell id="IVblQwggJsGfgOUuLyKI-131" style="edgeStyle=orthogonalEdgeStyle;rounded=0;orthogonalLoop=1;jettySize=auto;html=1;endArrow=oval;endFill=1;" edge="1" parent="1" source="IVblQwggJsGfgOUuLyKI-130" target="IVblQwggJsGfgOUuLyKI-113">
          <mxGeometry relative="1" as="geometry" />
        </mxCell>
        <mxCell id="IVblQwggJsGfgOUuLyKI-130" value="" style="rounded=1;whiteSpace=wrap;html=1;fillColor=none;dashed=1;" vertex="1" parent="1">
          <mxGeometry x="428.71999999999997" y="516.5" width="46.5" height="102" as="geometry" />
        </mxCell>
        <mxCell id="IVblQwggJsGfgOUuLyKI-132" value="" style="rounded=1;whiteSpace=wrap;html=1;fillColor=#dae8fc;fontFamily=Comic Sans MS;fontSize=8;strokeColor=#6c8ebf;" vertex="1" parent="1">
          <mxGeometry x="592.4199999999998" y="350" width="117.88" height="110" as="geometry" />
        </mxCell>
        <mxCell id="IVblQwggJsGfgOUuLyKI-133" value="" style="rounded=1;whiteSpace=wrap;html=1;fillColor=#ffe6cc;fontFamily=Comic Sans MS;fontSize=8;strokeColor=#d79b00;" vertex="1" parent="1">
          <mxGeometry x="606.05" y="365" width="90.63" height="85" as="geometry" />
        </mxCell>
        <mxCell id="IVblQwggJsGfgOUuLyKI-134" value="&lt;font style=&quot;font-size: 8px;&quot;&gt;region&lt;/font&gt;" style="text;html=1;align=center;verticalAlign=middle;resizable=0;points=[];autosize=1;strokeColor=none;fillColor=none;fontFamily=Comic Sans MS;fontSize=8;" vertex="1" parent="1">
          <mxGeometry x="588.8" y="345" width="50" height="20" as="geometry" />
        </mxCell>
        <mxCell id="IVblQwggJsGfgOUuLyKI-135" value="&lt;font style=&quot;font-size: 8px;&quot;&gt;Subnet&lt;/font&gt;" style="text;html=1;align=center;verticalAlign=middle;resizable=0;points=[];autosize=1;strokeColor=none;fillColor=none;fontFamily=Comic Sans MS;fontSize=8;" vertex="1" parent="1">
          <mxGeometry x="606.3" y="365" width="50" height="20" as="geometry" />
        </mxCell>
        <mxCell id="IVblQwggJsGfgOUuLyKI-136" value="&lt;font style=&quot;font-size: 8px;&quot;&gt;Internal IP Addresses for GCP Projects&lt;/font&gt;" style="whiteSpace=wrap;html=1;fontFamily=Comic Sans MS;fontSize=8;" vertex="1" parent="1">
          <mxGeometry x="617.1499999999999" y="400" width="69.53" height="40" as="geometry" />
        </mxCell>
        <mxCell id="IVblQwggJsGfgOUuLyKI-137" style="edgeStyle=orthogonalEdgeStyle;rounded=0;orthogonalLoop=1;jettySize=auto;html=1;entryX=0.5;entryY=1;entryDx=0;entryDy=0;endArrow=oval;endFill=1;" edge="1" parent="1" source="IVblQwggJsGfgOUuLyKI-21" target="IVblQwggJsGfgOUuLyKI-136">
          <mxGeometry relative="1" as="geometry" />
        </mxCell>
        <mxCell id="IVblQwggJsGfgOUuLyKI-138" value="" style="rounded=1;whiteSpace=wrap;html=1;fillColor=none;" vertex="1" parent="1">
          <mxGeometry x="414" y="510" width="136" height="130" as="geometry" />
        </mxCell>
        <mxCell id="IVblQwggJsGfgOUuLyKI-139" value="" style="rounded=1;whiteSpace=wrap;html=1;fillColor=none;" vertex="1" parent="1">
          <mxGeometry x="248.81" y="510" width="70" height="153" as="geometry" />
        </mxCell>
        <mxCell id="IVblQwggJsGfgOUuLyKI-140" value="" style="rounded=1;whiteSpace=wrap;html=1;fillColor=none;" vertex="1" parent="1">
          <mxGeometry x="49.169999999999995" y="510" width="84.38" height="160" as="geometry" />
        </mxCell>
        <mxCell id="IVblQwggJsGfgOUuLyKI-141" value="" style="edgeStyle=none;orthogonalLoop=1;jettySize=auto;html=1;rounded=0;entryX=0.109;entryY=1.005;entryDx=0;entryDy=0;entryPerimeter=0;exitX=0.825;exitY=0.006;exitDx=0;exitDy=0;exitPerimeter=0;startArrow=oval;startFill=1;endArrow=oval;endFill=1;" edge="1" parent="1">
          <mxGeometry width="100" relative="1" as="geometry">
            <mxPoint x="105.93350000000024" y="510.11" as="sourcePoint" />
            <mxPoint x="105.8000000000001" y="479.9999999999999" as="targetPoint" />
            <Array as="points" />
          </mxGeometry>
        </mxCell>
        <mxCell id="IVblQwggJsGfgOUuLyKI-142" value="" style="edgeStyle=none;orthogonalLoop=1;jettySize=auto;html=1;rounded=0;entryX=0.109;entryY=1.005;entryDx=0;entryDy=0;entryPerimeter=0;exitX=0.825;exitY=0.006;exitDx=0;exitDy=0;exitPerimeter=0;startArrow=oval;startFill=1;endArrow=oval;endFill=1;" edge="1" parent="1">
          <mxGeometry width="100" relative="1" as="geometry">
            <mxPoint x="285.03350000000023" y="510" as="sourcePoint" />
            <mxPoint x="284.9000000000001" y="479.8899999999999" as="targetPoint" />
            <Array as="points" />
          </mxGeometry>
        </mxCell>
        <mxCell id="IVblQwggJsGfgOUuLyKI-143" value="" style="edgeStyle=none;orthogonalLoop=1;jettySize=auto;html=1;rounded=0;entryX=0.109;entryY=1.005;entryDx=0;entryDy=0;entryPerimeter=0;exitX=0.825;exitY=0.006;exitDx=0;exitDy=0;exitPerimeter=0;startArrow=oval;startFill=1;endArrow=oval;endFill=1;" edge="1" parent="1">
          <mxGeometry width="100" relative="1" as="geometry">
            <mxPoint x="481.8435000000003" y="510.11" as="sourcePoint" />
            <mxPoint x="481.71000000000015" y="479.9999999999999" as="targetPoint" />
            <Array as="points" />
          </mxGeometry>
        </mxCell>
        <mxCell id="IVblQwggJsGfgOUuLyKI-147" value="VPC Network&amp;nbsp;&lt;div&gt;in DMZ&lt;/div&gt;" style="rounded=1;whiteSpace=wrap;html=1;fillColor=none;strokeColor=#6c8ebf;fontFamily=Comic Sans MS;fontSize=8;" vertex="1" parent="1">
          <mxGeometry x="1072.35" y="310" width="91.65" height="470" as="geometry" />
        </mxCell>
        <mxCell id="IVblQwggJsGfgOUuLyKI-150" value="" style="rounded=1;whiteSpace=wrap;html=1;fillColor=#dae8fc;fontFamily=Comic Sans MS;fontSize=8;strokeColor=#6c8ebf;" vertex="1" parent="1">
          <mxGeometry x="873.6199999999999" y="350" width="117.88" height="110" as="geometry" />
        </mxCell>
        <mxCell id="IVblQwggJsGfgOUuLyKI-151" value="" style="rounded=1;whiteSpace=wrap;html=1;fillColor=#ffe6cc;fontFamily=Comic Sans MS;fontSize=8;strokeColor=#d79b00;" vertex="1" parent="1">
          <mxGeometry x="887.25" y="365" width="90.63" height="85" as="geometry" />
        </mxCell>
        <mxCell id="IVblQwggJsGfgOUuLyKI-152" value="&lt;font style=&quot;font-size: 8px;&quot;&gt;region&lt;/font&gt;" style="text;html=1;align=center;verticalAlign=middle;resizable=0;points=[];autosize=1;strokeColor=none;fillColor=none;fontFamily=Comic Sans MS;fontSize=8;" vertex="1" parent="1">
          <mxGeometry x="870" y="345" width="50" height="20" as="geometry" />
        </mxCell>
        <mxCell id="IVblQwggJsGfgOUuLyKI-153" value="&lt;font style=&quot;font-size: 8px;&quot;&gt;Subnet&lt;/font&gt;" style="text;html=1;align=center;verticalAlign=middle;resizable=0;points=[];autosize=1;strokeColor=none;fillColor=none;fontFamily=Comic Sans MS;fontSize=8;" vertex="1" parent="1">
          <mxGeometry x="887.5" y="365" width="50" height="20" as="geometry" />
        </mxCell>
        <mxCell id="IVblQwggJsGfgOUuLyKI-160" style="edgeStyle=orthogonalEdgeStyle;rounded=0;orthogonalLoop=1;jettySize=auto;html=1;" edge="1" parent="1" source="IVblQwggJsGfgOUuLyKI-154" target="IVblQwggJsGfgOUuLyKI-159">
          <mxGeometry relative="1" as="geometry" />
        </mxCell>
        <mxCell id="IVblQwggJsGfgOUuLyKI-154" value="&lt;font style=&quot;font-size: 8px;&quot;&gt;Internal IP Addresses for Central Projects&lt;/font&gt;" style="whiteSpace=wrap;html=1;fontFamily=Comic Sans MS;fontSize=8;" vertex="1" parent="1">
          <mxGeometry x="898.3499999999999" y="400" width="69.53" height="40" as="geometry" />
        </mxCell>
        <mxCell id="IVblQwggJsGfgOUuLyKI-156" value="&lt;font style=&quot;font-size: 7px;&quot; face=&quot;Comic Sans MS&quot;&gt;Cloud Function that&amp;nbsp;&lt;/font&gt;&lt;div style=&quot;font-size: 7px;&quot;&gt;&lt;font style=&quot;font-size: 7px;&quot; face=&quot;Comic Sans MS&quot;&gt;pushes events&lt;/font&gt;&lt;div style=&quot;font-size: 7px;&quot;&gt;&lt;font style=&quot;font-size: 7px;&quot; face=&quot;Comic Sans MS&quot;&gt;to Dynatrace&lt;/font&gt;&lt;/div&gt;&lt;/div&gt;" style="text;html=1;align=center;verticalAlign=middle;resizable=0;points=[];autosize=1;strokeColor=none;fillColor=none;fontSize=7;" vertex="1" parent="1">
          <mxGeometry x="748.12" y="653" width="90" height="40" as="geometry" />
        </mxCell>
        <mxCell id="IVblQwggJsGfgOUuLyKI-157" value="&lt;font style=&quot;font-size: 8px;&quot;&gt;Failover ActiveGates&lt;/font&gt;" style="text;html=1;align=center;verticalAlign=middle;resizable=0;points=[];autosize=1;strokeColor=none;fillColor=none;" vertex="1" parent="1">
          <mxGeometry x="904.5" y="682.54" width="100" height="30" as="geometry" />
        </mxCell>
        <mxCell id="IVblQwggJsGfgOUuLyKI-158" value="" style="editableCssRules=.*;html=1;shape=image;verticalLabelPosition=bottom;labelBackgroundColor=#ffffff;verticalAlign=top;aspect=fixed;imageAspect=0;image=data:image/svg+xml,PHN2ZyB4bWxucz0iaHR0cDovL3d3dy53My5vcmcvMjAwMC9zdmciIHhtbG5zOnY9Imh0dHBzOi8vdmVjdGEuaW8vbmFubyIgd2lkdGg9IjIwIiBoZWlnaHQ9IjIwIiB2aWV3Qm94PSIwIDAgMjAgMjAiPiYjeGE7CTxzdHlsZSB0eXBlPSJ0ZXh0L2NzcyI+JiN4YTsJLnN0MHtmaWxsOiM0Mjg1ZjQ7fSYjeGE7CS5zdDF7ZmlsbDojNjY5ZGY2O30mI3hhOwkuc3Qye2ZpbGw6I2FlY2JmYTt9JiN4YTsJPC9zdHlsZT4mI3hhOwk8cGF0aCBjbGFzcz0ic3QyIiBkPSJNMTQgMGg2djZoLTZ6Ii8+JiN4YTsJPHBhdGggY2xhc3M9InN0MSIgZD0iTTE3IDBoM3Y2aC0zeiIvPiYjeGE7CTxwYXRoIGNsYXNzPSJzdDIiIGQ9Ik0xNCAxNGg2djZoLTZ6Ii8+JiN4YTsJPHBhdGggY2xhc3M9InN0MSIgZD0iTTE3IDE0aDN2NmgtM3oiLz4mI3hhOwk8cGF0aCBjbGFzcz0ic3QyIiBkPSJNMCAwaDZ2NkgweiIvPiYjeGE7CTxwYXRoIGNsYXNzPSJzdDEiIGQ9Ik0zIDBoM3Y2SDN6Ii8+JiN4YTsJPHBhdGggY2xhc3M9InN0MiIgZD0iTTAgMTRoNnY2SDB6Ii8+JiN4YTsJPGcgY2xhc3M9InN0MSI+JiN4YTsJCTxwYXRoIGQ9Ik0zIDE0aDN2Nkgzek02IDJoOHYySDZ6Ii8+JiN4YTsJCTxwYXRoIGQ9Ik02IDE2aDh2Mkg2ek0xNiA2aDJ2OGgtMnpNMiA2aDJ2OEgyeiIvPiYjeGE7CTwvZz4mI3hhOwk8cGF0aCBjbGFzcz0ic3QwIiBkPSJNMiA2aDJ2Mkgyem0xNCAwaDJ2MmgtMnpNNiAyaDJ2Mkg2em0wIDE0aDJ2Mkg2eiIvPiYjeGE7PC9zdmc+;" vertex="1" parent="1">
          <mxGeometry x="1080" y="321" width="24" height="24" as="geometry" />
        </mxCell>
        <mxCell id="IVblQwggJsGfgOUuLyKI-155" style="edgeStyle=orthogonalEdgeStyle;rounded=0;orthogonalLoop=1;jettySize=auto;html=1;startArrow=oval;startFill=1;endArrow=oval;endFill=1;exitX=0.5;exitY=1;exitDx=0;exitDy=0;" edge="1" parent="1" source="IVblQwggJsGfgOUuLyKI-118">
          <mxGeometry relative="1" as="geometry">
            <mxPoint x="793" y="610" as="targetPoint" />
          </mxGeometry>
        </mxCell>
        <mxCell id="IVblQwggJsGfgOUuLyKI-170" value="443" style="edgeLabel;html=1;align=center;verticalAlign=middle;resizable=0;points=[];" vertex="1" connectable="0" parent="IVblQwggJsGfgOUuLyKI-155">
          <mxGeometry x="0.2928" relative="1" as="geometry">
            <mxPoint as="offset" />
          </mxGeometry>
        </mxCell>
        <mxCell id="IVblQwggJsGfgOUuLyKI-167" style="edgeStyle=orthogonalEdgeStyle;rounded=0;orthogonalLoop=1;jettySize=auto;html=1;endArrow=oval;endFill=1;" edge="1" parent="1" source="IVblQwggJsGfgOUuLyKI-159">
          <mxGeometry relative="1" as="geometry">
            <mxPoint x="950" y="590" as="targetPoint" />
          </mxGeometry>
        </mxCell>
        <mxCell id="IVblQwggJsGfgOUuLyKI-169" value="9999" style="edgeLabel;html=1;align=center;verticalAlign=middle;resizable=0;points=[];" vertex="1" connectable="0" parent="IVblQwggJsGfgOUuLyKI-167">
          <mxGeometry x="0.2192" relative="1" as="geometry">
            <mxPoint as="offset" />
          </mxGeometry>
        </mxCell>
        <mxCell id="IVblQwggJsGfgOUuLyKI-159" value="" style="outlineConnect=0;dashed=0;verticalLabelPosition=bottom;verticalAlign=top;align=center;html=1;shape=mxgraph.aws3.elastic_load_balancing;fillColor=#F58536;gradientColor=none;" vertex="1" parent="1">
          <mxGeometry x="899.38" y="532.57" width="26.25" height="29.5" as="geometry" />
        </mxCell>
        <mxCell id="IVblQwggJsGfgOUuLyKI-164" style="edgeStyle=orthogonalEdgeStyle;rounded=0;orthogonalLoop=1;jettySize=auto;html=1;endArrow=oval;endFill=1;" edge="1" parent="1" source="IVblQwggJsGfgOUuLyKI-159">
          <mxGeometry relative="1" as="geometry">
            <mxPoint x="879" y="590" as="targetPoint" />
          </mxGeometry>
        </mxCell>
        <mxCell id="IVblQwggJsGfgOUuLyKI-168" value="9999" style="edgeLabel;html=1;align=center;verticalAlign=middle;resizable=0;points=[];" vertex="1" connectable="0" parent="IVblQwggJsGfgOUuLyKI-164">
          <mxGeometry x="0.2751" y="1" relative="1" as="geometry">
            <mxPoint as="offset" />
          </mxGeometry>
        </mxCell>
        <mxCell id="IVblQwggJsGfgOUuLyKI-171" value="" style="outlineConnect=0;dashed=0;verticalLabelPosition=bottom;verticalAlign=top;align=center;html=1;shape=mxgraph.aws3.elastic_load_balancing;fillColor=#F58536;gradientColor=none;" vertex="1" parent="1">
          <mxGeometry x="1390" y="564.69" width="26.25" height="29.5" as="geometry" />
        </mxCell>
        <mxCell id="yAwv_0xbP1rgqaZoiGZm-1" value="" style="shape=image;verticalLabelPosition=bottom;labelBackgroundColor=default;verticalAlign=top;aspect=fixed;imageAspect=0;image=https://seeklogo.com/images/D/dynatrace-logo-0B89594073-seeklogo.com.png;" vertex="1" parent="1">
          <mxGeometry x="1470" y="549.14" width="60" height="60.61" as="geometry" />
        </mxCell>
        <mxCell id="yAwv_0xbP1rgqaZoiGZm-3" value="Central Project" style="text;html=1;align=center;verticalAlign=middle;resizable=0;points=[];autosize=1;strokeColor=none;fillColor=none;fontFamily=Comic Sans MS;" vertex="1" parent="1">
          <mxGeometry x="822.25" y="730" width="110" height="30" as="geometry" />
        </mxCell>
        <mxCell id="yAwv_0xbP1rgqaZoiGZm-5" value="BT Perimeter" style="text;html=1;align=center;verticalAlign=middle;resizable=0;points=[];autosize=1;strokeColor=none;fillColor=none;" vertex="1" parent="1">
          <mxGeometry x="77.83" y="244" width="90" height="30" as="geometry" />
        </mxCell>
        <mxCell id="yAwv_0xbP1rgqaZoiGZm-6" value="" style="sketch=0;outlineConnect=0;fontColor=#232F3E;gradientColor=none;fillColor=#8C4FFF;strokeColor=none;dashed=0;verticalLabelPosition=bottom;verticalAlign=top;align=center;html=1;fontSize=12;fontStyle=0;aspect=fixed;pointerEvents=1;shape=mxgraph.aws4.hosted_zone;" vertex="1" parent="1">
          <mxGeometry x="41.36" y="244" width="36.47" height="36" as="geometry" />
        </mxCell>
        <mxCell id="yAwv_0xbP1rgqaZoiGZm-7" value="" style="edgeStyle=none;orthogonalLoop=1;jettySize=auto;html=1;rounded=0;entryX=0.109;entryY=1.005;entryDx=0;entryDy=0;entryPerimeter=0;exitX=0.825;exitY=0.006;exitDx=0;exitDy=0;exitPerimeter=0;startArrow=oval;startFill=1;endArrow=oval;endFill=1;" edge="1" parent="1">
          <mxGeometry width="100" relative="1" as="geometry">
            <mxPoint x="858.6335000000004" y="510" as="sourcePoint" />
            <mxPoint x="858.5000000000002" y="479.8899999999999" as="targetPoint" />
            <Array as="points" />
          </mxGeometry>
        </mxCell>
      </root>
    </mxGraphModel>
  </diagram>
</mxfile>
